<svg xmlns="http://www.w3.org/2000/svg" id="Layer_1" data-name="Layer 1" viewBox="0 0 791.95 365.95"><defs><style>.cls-1{fill:#e37625;}.cls-2{fill:#b82026;}.cls-3{fill:#26704a;}.cls-4{fill:#da454c;}.cls-5{fill:#fcb34f;}</style></defs><path class="cls-1" d="M264.82,510.23v-17h46.39v17H298.12v70.84H277.91V510.23Z" transform="translate(-251.93 -318.64)"></path><path class="cls-1" d="M317.54,581.07V493.28h20.22v87.79Z" transform="translate(-251.93 -318.64)"></path><path class="cls-1" d="M347.41,581.07V493.28H369.5L385.75,545l.22-51.75h19.57v87.79h-22L367.2,526.8,367,581.07Z" transform="translate(-251.93 -318.64)"></path><path class="cls-1" d="M414.5,581.07V493.28h20.21v32.87h11.64V493.28h20.22v87.79H446.35V543.69H434.71v37.38Z" transform="translate(-251.93 -318.64)"></path><path class="cls-1" d="M502.77,581.07V493.28H523v32.87h11.63V493.28h20.22v87.79H534.62V543.69H523v37.38Z" transform="translate(-251.93 -318.64)"></path><path class="cls-1" d="M563.8,557.1V517.25q0-12.44,7.34-19.09,6.93-6.27,18.72-6.28,11.64,0,18.88,6.49t7.13,18.88V557.1q0,11.63-7,18.44t-19,6.92q-11.91,0-18.93-6.81T563.8,557.1ZM584,515.48v43.39a11.78,11.78,0,0,0,1.34,6.16c.85,1.26,2.36,1.88,4.5,1.88a5.11,5.11,0,0,0,5-3.11,15.85,15.85,0,0,0,.75-4.93V515.48a16,16,0,0,0-.64-5q-1.34-3-5.15-2.95a5.22,5.22,0,0,0-5.09,2.84A16.64,16.64,0,0,0,584,515.48Z" transform="translate(-251.93 -318.64)"></path><path class="cls-1" d="M619.14,581.07l16.25-87.79h26.82l16.46,87.79H657.49l-1.88-15.61H641.45l-2.09,15.61Zm24.4-31.21h10.08l-4.71-43Z" transform="translate(-251.93 -318.64)"></path><path class="cls-1" d="M711.17,557.1V517.25q0-12.44,7.34-19.09,6.93-6.27,18.72-6.28t18.13,4.51q7.88,5.48,7.88,17v9.76H744v-8.74q0-6.91-6.38-6.92a5.89,5.89,0,0,0-5.15,2.95,11.8,11.8,0,0,0-1.12,5v43.39a11.78,11.78,0,0,0,1.34,6.16c.85,1.26,2.36,1.88,4.5,1.88q6.43,0,6.44-6.6V549h-7.14V532.75h26.71v48.32h-17.7v-7.13a17.83,17.83,0,0,1-15.82,8.52q-9.75,0-14.69-7.67Q711.18,568.42,711.17,557.1Z" transform="translate(-251.93 -318.64)"></path><path class="cls-1" d="M784.69,493.17h26.82l16.57,87.9H806.79l-1.88-15.61H790.75l-2.09,15.61H768.44ZM800.62,473l4.83,14.91H795.26L783.3,473Zm-7.78,76.85h10.09l-4.72-43.07Z" transform="translate(-251.93 -318.64)"></path><path class="cls-1" d="M870.12,581.07l-13.41-87.79h20.65l5.52,62.42,6.92-62.42h20.27l-14.9,87.79Z" transform="translate(-251.93 -318.64)"></path><path class="cls-1" d="M916,581.07V493.28h20.22v87.79Z" transform="translate(-251.93 -318.64)"></path><path class="cls-1" d="M945.9,493.17h44.94v16.95H966.12v17.53h21.66v17H966.12v19.52H991.8v17H945.9Zm6.7-5.25L961.72,473h15.5l7.88,14.91H973.68l-4.83-8.37-5.47,8.37Zm6.06,101.57h18.88v13H958.66Z" transform="translate(-251.93 -318.64)"></path><path class="cls-1" d="M997.49,510.23v-17h46.39v17h-13.09v70.84h-20.22V510.23Z" transform="translate(-251.93 -318.64)"></path><path class="cls-2" d="M286.86,422.4c1.41,1.24,2.12,2.38,2.12,3.44s-.62,3.18-1.86,6.28c-7.24,17.66-11.57,28.26-12.89,31.88,1.15-1.68,3.71-4.95,7.68-9.89s6.63-8.31,8.13-10.25c1.23-1.85,1.68-2.47,3.18-2.47a5.57,5.57,0,0,1,3.09,1.15c1.15.79,1.76,1.59,1.76,2.38,0,1-1,3.18-2.82,6.71-4.59,8.57-6.89,14.75-6.89,18.37,0,1.77.35,2.65,1,2.65,1.15,0,4.86-3.09,8-6.53a51.81,51.81,0,0,0,5.3-6.36c.08-.27.26-.27.35-.09s.18.35.09.53a14.9,14.9,0,0,1-1.59,4.06,60.6,60.6,0,0,1-3.09,5.39c-3.45,5-6.18,7.6-8.3,7.6-1.24,0-3.1-.89-5.48-2.57s-3-5.29-1.94-10.51a50.26,50.26,0,0,1,3.35-9.89q-.8.66-6.89,8a81.27,81.27,0,0,0-7.59,10.6c-.88,1.5-1.5,3.27-1.86,3.27-1.76,0-4.68-1.5-4.68-3.27q0-1.06,4.24-13l10-28.88c1.33-4.07,2.21-7.16,2.74-8.3.35-1.06.53-1.51.8-1.59A5.94,5.94,0,0,1,286.86,422.4Z" transform="translate(-251.93 -318.64)"></path><path class="cls-2" d="M318.12,441.48c2,0,4.33,1.41,7.07,4.24l1.06-2.83c.18-.35,1.85-.18,3.62.62s2.74,2,2.74,3.53a13.34,13.34,0,0,1-1.15,3.36c-.35.79-1.5,3.09-2.21,4.5-3.09,6.36-4.85,10.69-5.3,12.9-.44,2.47-.44,3.79.18,4s3.8-1.85,7.77-5.83a34,34,0,0,0,5.12-6.09c.18-.09.36,0,.45.26,0,.71-1.68,4.77-3.8,8.22a39.73,39.73,0,0,1-4,5.21c-1.67,1.76-3.09,2.65-4.32,2.65-1.68,0-3.62-1-5.92-3-1.41-1.23-2-3.09-1.94-5.65a36,36,0,0,1,.53-4.06c-4.69,8.74-7.51,13.07-8.66,13.07a8.69,8.69,0,0,1-6.53-3.62c-1.24-1.86-1.42-5.3-.45-10.51a36.78,36.78,0,0,1,6.72-15.28C311.94,443.33,314.94,441.48,318.12,441.48Zm5.92,6.89a6.26,6.26,0,0,0-2.65-.8c-2.38,0-5,2.12-7.95,6.27A34.57,34.57,0,0,0,307.7,468c-.44,2.48-.26,3.71.36,3.71s4.68-4.77,9.18-11.3a71.47,71.47,0,0,0,5.21-8.66Zm.09-26.68c.44.53-.35,1.68-.35,6a21.13,21.13,0,0,0,2.47,8.74c.18.36-.62,1-1.33.8-1.85-.36-3.79-1.77-5.91-4.24-2.48-2.83-3.36-6.36-1.68-8.75C319.1,422.14,323.78,421.34,324.13,421.69Z" transform="translate(-251.93 -318.64)"></path><path class="cls-2" d="M342.24,443.24c.17-.35,3.26-.44,5.21,1.15A3.63,3.63,0,0,1,349,447c0,.8-.53,2.12-2,5.21a37.6,37.6,0,0,0-1.85,4l-4.77,11.21c6.62-9.09,11-14.92,13.07-17.39,1.86-2.21,4.77-5.92,5.92-7.34a8.85,8.85,0,0,1,1.15-1.23,7.55,7.55,0,0,1,3.44.71c1.59.88,2.38,1.94,2.38,3.26,0,1.06-1.05,2.74-3.17,6.63-1.06,1.94-2,3.88-2.92,5.91-2.21,5-3.36,8.92-3.36,11.93,0,1.5.27,2.2.8,2.2s3.89-1.85,8-5.91c3.09-3.36,4.77-5.74,5.3-6.27.26-.36.53-.09.44.26a31.11,31.11,0,0,1-4.68,9.54q-4.64,6.89-8.22,6.89a9.57,9.57,0,0,1-4.41-1.77,7,7,0,0,1-3.45-6.27,33.63,33.63,0,0,1,1.77-9c.62-1.85,1.15-3.53,1.77-5-1.06,1.06-3.36,3.89-6.89,8.39-5.65,7.15-8.83,11.39-9.45,12.72-.36.79-1.86.26-4.42-1.5a1.7,1.7,0,0,1-.7-2.12c1.67-5.92,3.62-12.46,6-19.52C340.2,448.37,341.35,445.27,342.24,443.24Z" transform="translate(-251.93 -318.64)"></path><path class="cls-2" d="M387.1,422.4c1.42,1.24,2.12,2.38,2.12,3.44s-.62,3.18-1.85,6.28c-7.24,17.66-11.57,28.26-12.9,31.88,1.15-1.68,3.71-4.95,7.69-9.89s6.62-8.31,8.12-10.25c1.24-1.85,1.68-2.47,3.18-2.47a5.57,5.57,0,0,1,3.09,1.15c1.15.79,1.77,1.59,1.77,2.38,0,1-1,3.18-2.83,6.71-4.59,8.57-6.89,14.75-6.89,18.37,0,1.77.36,2.65,1,2.65,1.14,0,4.85-3.09,8-6.53a51.81,51.81,0,0,0,5.3-6.36c.09-.27.27-.27.35-.09s.18.35.09.53a14.9,14.9,0,0,1-1.59,4.06,60.6,60.6,0,0,1-3.09,5.39c-3.44,5-6.18,7.6-8.3,7.6-1.24,0-3.09-.89-5.48-2.57s-3-5.29-1.94-10.51a50.38,50.38,0,0,1,3.36-9.89q-.8.66-6.89,8a81.32,81.32,0,0,0-7.6,10.6c-.88,1.5-1.5,3.27-1.85,3.27-1.77,0-4.68-1.5-4.68-3.27q0-1.06,4.24-13l10-28.88c1.32-4.07,2.21-7.16,2.74-8.3.35-1.06.52-1.51.79-1.59A5.92,5.92,0,0,1,387.1,422.4Z" transform="translate(-251.93 -318.64)"></path><path class="cls-2" d="M427.91,435.82c2.91-7.94,4.41-11.92,4.41-12a7.94,7.94,0,0,1,5.48,2c1.59,1.42,1.68,3.54.26,6.45L436.3,436c4.15,0,6.89-.09,8.12-.18.62.36-.17,2.12-1.23,3.27a6,6,0,0,1-3.18,2,28.31,28.31,0,0,1-6.1.35c-4.85,11-7.86,19.34-9.18,24.9-.88,3.45-.88,5.21-.35,5.21,1.58,0,4.06-1.58,7.5-4.76a75.76,75.76,0,0,0,6.18-6.54c.36-.35,1-.09.71.53a46.38,46.38,0,0,1-6.18,10.07c-3,3.8-5.57,5.74-7.6,5.74-1.06,0-4.15-1.59-5.65-2.74a5.14,5.14,0,0,1-1.59-4.15c0-2.56,1-6.8,2.83-12.81,1.41-4.41,3.18-9.62,5.38-15.63-4.15-.09-6.35-.26-6.44-.44s.09-.88.7-2a7,7,0,0,1,1.42-2.3C422.08,436,424.2,435.82,427.91,435.82Z" transform="translate(-251.93 -318.64)"></path><path class="cls-2" d="M453.61,461.17c-.62-.7-.62-2.21,0-4.5a18.41,18.41,0,0,1,1.85-4.68q-3,2.5-10.33,10.86c-1.77,2-3.27,5.65-4.59,9.27a31.68,31.68,0,0,1-1.42,3.45c-.35.79-1.85.26-4.41-1.5A1.7,1.7,0,0,1,434,472c1.68-5.92,3.62-12.46,6-19.52,1.85-5.39,3-8.66,3.53-9.81.18-.35,3.27-.44,5.21,1.15a3.65,3.65,0,0,1,1.59,2.56,21.29,21.29,0,0,1-1.59,4.6c-.53,1.23-1.59,3.71-2.29,5.21L444.78,460c2.12-2.91,4.94-6.53,8.56-10.86a33.3,33.3,0,0,1,7.16-6.8,6,6,0,0,1,4.68-.18c1.32.8,2,1.59,2,2.56.35,1-3.44,5.75-5.92,11a33.85,33.85,0,0,0-2.65,7.5C456.08,462.85,454.4,462.14,453.61,461.17Z" transform="translate(-251.93 -318.64)"></path><path class="cls-2" d="M468.89,448l3.09-6.36a6.31,6.31,0,0,1,4.86,1.33c1.76,1.5,1.94,2.12,1.23,4.24-.53,1.5-2.65,5.38-5.12,10.51-2.83,5.91-4.24,10.07-4.24,12.45,0,1.06.18,1.59.62,1.59,1.15,0,4.95-3,8.13-6.27a45.6,45.6,0,0,0,4.68-5.65c.26-.27.53-.09.44.26a26.57,26.57,0,0,1-3.8,8.22c-3.53,5.21-6.27,7.86-8.3,7.86a8.64,8.64,0,0,1-4.59-1.95,6.68,6.68,0,0,1-3.1-5.91C462.79,464.62,464.83,457.82,468.89,448Zm11.92-26.32c.44.53-.35,1.68-.35,6a21.29,21.29,0,0,0,2.47,8.74c.18.36-.62,1-1.32.8-1.86-.36-3.8-1.77-5.92-4.24-2.47-2.83-3.36-6.36-1.68-8.75C475.78,422.14,480.46,421.34,480.81,421.69Z" transform="translate(-251.93 -318.64)"></path><path class="cls-2" d="M488.23,443.24c.18-.35,3.27-.44,5.21,1.15A3.63,3.63,0,0,1,495,447c0,.8-.53,2.12-1.94,5.21a37.88,37.88,0,0,0-1.86,4l-4.77,11.21c6.63-9.09,11-14.92,13.08-17.39,1.85-2.21,4.76-5.92,5.91-7.34a8.85,8.85,0,0,1,1.15-1.23,7.62,7.62,0,0,1,3.45.71c1.59.88,2.38,1.94,2.38,3.26,0,1.06-1.06,2.74-3.18,6.63-1.06,1.94-2,3.88-2.91,5.91-2.21,5-3.36,8.92-3.36,11.93,0,1.5.26,2.2.79,2.2s3.89-1.85,8-5.91c3.09-3.36,4.77-5.74,5.3-6.27.27-.36.53-.09.44.26a30.88,30.88,0,0,1-4.68,9.54q-4.63,6.89-8.21,6.89a9.63,9.63,0,0,1-4.42-1.77,7,7,0,0,1-3.44-6.27,33.63,33.63,0,0,1,1.77-9c.61-1.85,1.14-3.53,1.76-5-1.06,1.06-3.35,3.89-6.89,8.39-5.65,7.15-8.83,11.39-9.45,12.72-.35.79-1.85.26-4.41-1.5a1.7,1.7,0,0,1-.71-2.12c1.68-5.92,3.62-12.46,6-19.52C486.2,448.37,487.35,445.27,488.23,443.24Z" transform="translate(-251.93 -318.64)"></path><path class="cls-2" d="M533.1,422.4c1.41,1.24,2.12,2.38,2.12,3.44s-.62,3.18-1.86,6.28c-7.24,17.66-11.57,28.26-12.89,31.88,1.15-1.68,3.71-4.95,7.68-9.89s6.62-8.31,8.13-10.25c1.23-1.85,1.67-2.47,3.18-2.47a5.57,5.57,0,0,1,3.09,1.15c1.14.79,1.76,1.59,1.76,2.38,0,1-1,3.18-2.82,6.71-4.59,8.57-6.89,14.75-6.89,18.37,0,1.77.35,2.65,1,2.65,1.15,0,4.86-3.09,8-6.53a52.76,52.76,0,0,0,5.3-6.36c.08-.27.26-.27.35-.09s.18.35.09.53a14.9,14.9,0,0,1-1.59,4.06,60.6,60.6,0,0,1-3.09,5.39c-3.45,5-6.19,7.6-8.31,7.6-1.23,0-3.09-.89-5.47-2.57s-3-5.29-1.94-10.51a50.26,50.26,0,0,1,3.35-9.89q-.79.66-6.89,8a81.27,81.27,0,0,0-7.59,10.6c-.88,1.5-1.5,3.27-1.86,3.27-1.76,0-4.68-1.5-4.68-3.27q0-1.06,4.24-13l10-28.88c1.33-4.07,2.21-7.16,2.74-8.3.35-1.06.53-1.51.79-1.59A6,6,0,0,1,533.1,422.4Z" transform="translate(-251.93 -318.64)"></path><path class="cls-2" d="M585.74,475a.92.92,0,0,1-.18.44c-.26.26-1,.35-2.12.18a7.23,7.23,0,0,1-3.53-1.42c-.53-.44-.62-1.76-.36-4.15a59.22,59.22,0,0,1,2.48-10.6c.7-2.38,1.76-5.12,1.76-5.12-1,1-3.35,3.8-7,8.48A76.14,76.14,0,0,0,568.07,476c-.35.79-1.85.26-4.41-1.5a1.73,1.73,0,0,1-.71-2.12,178.73,178.73,0,0,1,5.74-20,81.38,81.38,0,0,1,4.77-10.95,8.57,8.57,0,0,1,4.86,1.76c1.32,1.06,1.76,2,1.5,2.92a29.65,29.65,0,0,1-1.59,3.35c-.88,1.77-1.5,3.09-1.94,4.07-1.42,3.09-2.65,6.09-3.71,8.92s-1.77,4.41-2,4.85L583,450c4-5.66,6.27-8.66,6.89-9.1a12.88,12.88,0,0,1,3.71.88c1.85.8,2.56,1.77,2.21,3-.09.27-3.1,5.75-6,13.16-.88,2.3-1.68,4.6-2.39,7a87.37,87.37,0,0,1,9.9-12.8c2.91-3.27,4.85-5.3,5.83-5.92a5.48,5.48,0,0,1,3,.62c2,1.14,3,2.2,3,3.35.27.36-2,4.15-4.33,9A40.58,40.58,0,0,0,601.28,470c-.26,1.68-.18,2.56.27,2.56s4.15-1.85,8-6.09c1.77-1.94,3.54-4.15,5.39-6.53.26-.27.35-.27.44.08v.45a32.6,32.6,0,0,1-4.59,9.18c-3.27,4.86-6,7.24-8.39,7.24a11.43,11.43,0,0,1-4.51-1.59c-1.67-1-2.56-2.91-2.56-5.83a31.3,31.3,0,0,1,1.68-9.36l1.15-3.27a34.47,34.47,0,0,0-7.07,7.42A37.51,37.51,0,0,0,585.74,475Z" transform="translate(-251.93 -318.64)"></path><path class="cls-2" d="M629.72,441.48c2,0,4.33,1.41,7.07,4.24l1.06-2.83c.17-.35,1.85-.18,3.62.62s2.74,2,2.74,3.53a13.34,13.34,0,0,1-1.15,3.36c-.36.79-1.5,3.09-2.21,4.5-3.09,6.36-4.86,10.69-5.3,12.9-.44,2.47-.44,3.79.18,4s3.79-1.85,7.77-5.83a34,34,0,0,0,5.12-6.09c.18-.09.36,0,.44.26,0,.71-1.67,4.77-3.79,8.22a39.73,39.73,0,0,1-4,5.21c-1.68,1.76-3.09,2.65-4.33,2.65-1.67,0-3.62-1-5.91-3-1.42-1.23-2-3.09-1.95-5.65.09-1.24.27-2.56.53-4.06-4.68,8.74-7.5,13.07-8.65,13.07a8.71,8.71,0,0,1-6.54-3.62c-1.23-1.86-1.41-5.3-.44-10.51a36.89,36.89,0,0,1,6.71-15.28C623.54,443.33,626.54,441.48,629.72,441.48Zm5.92,6.89a6.26,6.26,0,0,0-2.65-.8c-2.39,0-5,2.12-8,6.27A34.43,34.43,0,0,0,619.3,468c-.44,2.48-.26,3.71.35,3.71s4.68-4.77,9.19-11.3a72.79,72.79,0,0,0,5.21-8.66Z" transform="translate(-251.93 -318.64)"></path><path class="cls-2" d="M653.83,443.24c.18-.35,3.27-.44,5.21,1.15a3.63,3.63,0,0,1,1.59,2.56c0,.8-.53,2.12-1.94,5.21a37.6,37.6,0,0,0-1.85,4l-4.77,11.21c6.62-9.09,11-14.92,13.07-17.39,1.85-2.21,4.77-5.92,5.92-7.34a9.08,9.08,0,0,1,1.14-1.23,7.59,7.59,0,0,1,3.45.71c1.59.88,2.38,1.94,2.38,3.26,0,1.06-1.06,2.74-3.18,6.63-1.06,1.94-2,3.88-2.91,5.91-2.21,5-3.36,8.92-3.36,11.93,0,1.5.27,2.2.8,2.2s3.88-1.85,8-5.91c3.09-3.36,4.77-5.74,5.29-6.27.27-.36.53-.09.45.26a31.11,31.11,0,0,1-4.68,9.54c-3.1,4.59-5.83,6.89-8.22,6.89a9.57,9.57,0,0,1-4.41-1.77,7,7,0,0,1-3.45-6.27,33.63,33.63,0,0,1,1.77-9c.62-1.85,1.15-3.53,1.76-5-1.06,1.06-3.35,3.89-6.88,8.39-5.66,7.15-8.84,11.39-9.45,12.72-.36.79-1.86.26-4.42-1.5a1.71,1.71,0,0,1-.71-2.12c1.68-5.92,3.62-12.46,6-19.52C651.8,448.37,653,445.27,653.83,443.24Z" transform="translate(-251.93 -318.64)"></path><path class="cls-2" d="M702.23,454.64c1.15,1.67,1.5,3.18.89,4.32,0,.71-3.89,2.74-7.42,5.39a72.17,72.17,0,0,0-7,6c2.74-.36,4.68-.09,5.83.7A13.75,13.75,0,0,1,698.7,477v.18a53.74,53.74,0,0,1,7-.44c.44,0,.53.35.26,1.06s-.44.88-.79.88a34.23,34.23,0,0,0-6.1.71c.45,5.12-1.5,10.77-5.65,17a29.75,29.75,0,0,1-9.54,9.27c-3.62,2-6.62,3.09-8.83,3.09-2.38,0-4.86-1.14-7.42-3.35s-3.8-4.24-3.8-5.83c0-4,5.22-10.86,14.49-15.9a58.63,58.63,0,0,1,16.16-5.83,8.31,8.31,0,0,0-.18-2.73c-1.32-3.36-10.24,1.23-11.3,1.23-.79,0-1.41-.44-2-1.41a6.16,6.16,0,0,1-.8-3.27c0-.44.8-1.5,2.3-3.18a49.75,49.75,0,0,1,4.95-4.77,5.13,5.13,0,0,1-3.09-.09,8.17,8.17,0,0,1-2.57-2.2,5.27,5.27,0,0,1-1.67-3.36c0-4.5,2.38-8.65,7.06-12.45a16.54,16.54,0,0,1,10.69-4.07,11.35,11.35,0,0,1,4.5.71,6.31,6.31,0,0,1,2.21,2.21,9,9,0,0,1,1.41,3.09c.18.88,0,1.24-.44,1.06a18.1,18.1,0,0,0-5.83-.53c-3.18.09-6.36,1.59-9.62,4.5-2.92,2.57-4.6,6-4.6,7.42.36.45,2.21.09,5.83-1.5a29.14,29.14,0,0,0,5-2.74c.7-.44,3.09-2.2,4.24-2.91A4.63,4.63,0,0,1,702.23,454.64Zm-8.3,26.05a36.46,36.46,0,0,0-10.69,5.21c-6.62,4.86-11.12,10.07-12.27,12.45a7.21,7.21,0,0,0-.8,2.56c0,.8,1.33.89,3.89.27a25.67,25.67,0,0,0,12.81-7.95c.88-1,1.67-1.94,2.47-3A33.46,33.46,0,0,0,693.93,480.69ZM713.71,439c0,.71-.7.71-2.2.71a10.1,10.1,0,0,0-4.86,2,4.88,4.88,0,0,1-2.12,1.15c-.53,0-.8-.44-.8-1.41a9.67,9.67,0,0,1,2.65-6.45c1.77-2,3.36-2.74,4.86-2.21C712.92,433.44,713.71,435.47,713.71,439Z" transform="translate(-251.93 -318.64)"></path><path class="cls-1" d="M277.5,669.77,268.21,609h14.31l3.82,43.24L291.13,609h14.05l-10.33,60.81Z" transform="translate(-251.93 -318.64)"></path><path class="cls-1" d="M308.86,608.88H340v11.74H322.86v12.15h15v11.74h-15V658h17.8v11.74h-31.8Zm4.64-3.64,6.31-10.33h10.74L336,605.24H328.1l-3.34-5.79L321,605.24Zm24.56-17.83,3,9.25h-6.32l-7.47-9.25Z" transform="translate(-251.93 -318.64)"></path><path class="cls-1" d="M365.77,669.77V609h14V658H395v11.74Z" transform="translate(-251.93 -318.64)"></path><path class="cls-1" d="M408.2,608.88h18.57l11.48,60.89H423.5L422.2,659h-9.81l-1.45,10.81h-14Zm2.45,66.72h13.07v9H410.65Zm3.19-27.45h7l-3.27-29.83Z" transform="translate(-251.93 -318.64)"></path><path class="cls-1" d="M442.26,669.77V609h14v60.81Z" transform="translate(-251.93 -318.64)"></path><path class="cls-1" d="M488.51,669.77,479.23,609h14.3l3.83,43.24L502.15,609h14l-10.33,60.81Z" transform="translate(-251.93 -318.64)"></path><path class="cls-1" d="M554.42,617a20.68,20.68,0,0,1,1.6,8.47v27.68q0,8-4.87,12.77t-13.23,4.8c-5.49,0-9.87-1.58-13.11-4.72s-4.94-7.43-4.94-12.85V625.49q0-8.62,5.09-13.27,4.78-4.31,13-4.3a20.52,20.52,0,0,1,10.74,2.67v-8.47H559l0,10.1Zm-17.95-22.11h11.78l-8.06,10.33h-7.32Zm-2.6,59.48a8.2,8.2,0,0,0,.93,4.27,4.12,4.12,0,0,0,6.62-.85,11.23,11.23,0,0,0,.52-3.42V624.26a11,11,0,0,0-.45-3.49,3.55,3.55,0,0,0-3.57-2,3.61,3.61,0,0,0-3.53,2,11.63,11.63,0,0,0-.52,3.56Z" transform="translate(-251.93 -318.64)"></path><path class="cls-1" d="M562.59,669.77V609h14v60.81Z" transform="translate(-251.93 -318.64)"></path><path class="cls-1" d="M602.16,669.77V609h15.3l11.26,35.85.15-35.85h13.56v60.81H627.2l-11.34-37.6-.14,37.6Z" transform="translate(-251.93 -318.64)"></path><path class="cls-1" d="M648.63,653.17V625.56q0-8.61,5.09-13.22,4.8-4.35,13-4.35t12.55,3.12q5.46,3.79,5.46,11.78v6.76H671.4v-6.06q0-4.79-4.42-4.79a4.08,4.08,0,0,0-3.56,2,8.2,8.2,0,0,0-.78,3.5v30a8.31,8.31,0,0,0,.92,4.27,3.52,3.52,0,0,0,3.13,1.3q4.45,0,4.45-4.57v-7.84H666.2V636.3h18.5v33.47H672.44v-4.94a12.33,12.33,0,0,1-11,5.91c-4.5,0-7.9-1.77-10.17-5.32Q648.63,661,648.63,653.17Z" transform="translate(-251.93 -318.64)"></path><path class="cls-1" d="M725.09,602.12h10.32l0,10.1-4.87,5.13h-3.38l-.07,35.82q0,8-4.87,12.77T709,670.74c-5.49,0-9.87-1.58-13.11-4.72s-4.94-7.43-4.94-12.85V608.88h14v44.43a13.13,13.13,0,0,0,.6,4.65c.37,1,1.52,1.52,3.45,1.52a3.91,3.91,0,0,0,3-1.19c.64-.77,1-2.43,1-5V608.88l12.11.15Z" transform="translate(-251.93 -318.64)"></path><path class="cls-1" d="M767.73,617a20.52,20.52,0,0,1,1.6,8.47v27.68q0,8-4.86,12.77t-13.23,4.8q-8.25,0-13.11-4.72t-4.94-12.85V625.49q0-8.62,5.08-13.27,4.8-4.31,13-4.3A20.52,20.52,0,0,1,762,610.59v-8.47h10.33l0,10.1Zm-12.18-24.26,3.34,10.36h-7l-8.29-10.36Zm-8.36,61.63a8.2,8.2,0,0,0,.93,4.27,3.49,3.49,0,0,0,3.12,1.3,3.54,3.54,0,0,0,3.49-2.15,10.93,10.93,0,0,0,.52-3.42V624.26a11.32,11.32,0,0,0-.44-3.49,3.55,3.55,0,0,0-3.57-2,3.61,3.61,0,0,0-3.53,2,11.33,11.33,0,0,0-.52,3.56Z" transform="translate(-251.93 -318.64)"></path><path class="cls-1" d="M775.91,669.77V609h14v60.81Z" transform="translate(-251.93 -318.64)"></path><path class="cls-1" d="M822.16,669.77,812.87,609h14.31L831,652.2,835.79,609h14.05l-10.33,60.81Z" transform="translate(-251.93 -318.64)"></path><path class="cls-1" d="M854,669.77V609h14v60.81Z" transform="translate(-251.93 -318.64)"></path><path class="cls-1" d="M874.65,608.88h31.14v11.74H888.66v12.15h15v11.74h-15V658h17.79v11.74h-31.8Zm4.65-3.64,6.31-10.33h10.74l5.46,10.33H893.9l-3.35-5.79-3.79,5.79Zm4.19,70.36h13.08v9H883.49Z" transform="translate(-251.93 -318.64)"></path><path class="cls-1" d="M910.39,620.7V609h32.14V620.7h-9.07v49.07h-14V620.7Z" transform="translate(-251.93 -318.64)"></path><path class="cls-3" d="M407.15,385.17c-3.33,0-5.66,2.62-5.66,6.37s2.31,6.43,5.63,6.43a4.68,4.68,0,0,0,4.94-3.91.57.57,0,0,0-.6-.7h-.64a.62.62,0,0,0-.65.52,2.9,2.9,0,0,1-3.05,2.29c-1.77,0-3.68-1.44-3.68-4.6,0-2.75,1.49-4.6,3.71-4.6a3.17,3.17,0,0,1,2.3.9,2.3,2.3,0,0,1,.67,1.48,1.11,1.11,0,0,0-.36.88,1.13,1.13,0,0,0,1.15,1.15,1.19,1.19,0,0,0,1.19-1.17,4.45,4.45,0,0,0-1.14-3.46A5.05,5.05,0,0,0,407.15,385.17Z" transform="translate(-251.93 -318.64)"></path><path class="cls-3" d="M425.77,385.33h-3.21a.6.6,0,0,0-.64.63v.44a.6.6,0,0,0,.64.63h.66v3.66h-5.5V387h.61a.59.59,0,0,0,.63-.63V386a.59.59,0,0,0-.63-.63h-3.2a.6.6,0,0,0-.64.63v.44a.6.6,0,0,0,.64.63h.66v9.07h-.68a.6.6,0,0,0-.63.64v.43a.6.6,0,0,0,.63.64h3.22a.6.6,0,0,0,.63-.64v-.43a.6.6,0,0,0-.63-.64h-.61v-3.64h5.5v3.64h-.68a.6.6,0,0,0-.63.64v.43a.6.6,0,0,0,.63.64h3.23a.61.61,0,0,0,.64-.64v-.43a.61.61,0,0,0-.64-.64h-.62V387h.62a.6.6,0,0,0,.64-.63V386A.6.6,0,0,0,425.77,385.33Z" transform="translate(-251.93 -318.64)"></path><path class="cls-3" d="M432.77,385.33h-3.2a.6.6,0,0,0-.64.63v.44a.6.6,0,0,0,.64.63h.62v9.07h-.62a.61.61,0,0,0-.64.64v.43a.61.61,0,0,0,.64.64h3.2a.6.6,0,0,0,.63-.64v-.43a.6.6,0,0,0-.63-.64h-.64V387h.64a.59.59,0,0,0,.63-.63V386A.59.59,0,0,0,432.77,385.33Z" transform="translate(-251.93 -318.64)"></path><path class="cls-3" d="M441.34,385.17c-3.33,0-5.66,2.62-5.66,6.37S438,398,441.31,398a4.67,4.67,0,0,0,4.94-3.91.58.58,0,0,0-.12-.5.6.6,0,0,0-.47-.2H445a.61.61,0,0,0-.64.52,2.91,2.91,0,0,1-3.06,2.29c-1.77,0-3.68-1.44-3.68-4.6,0-2.75,1.49-4.6,3.71-4.6a3.15,3.15,0,0,1,2.3.9,2.3,2.3,0,0,1,.67,1.48,1.1,1.1,0,0,0-.35.88,1.13,1.13,0,0,0,1.15,1.15,1.18,1.18,0,0,0,1.18-1.17,4.48,4.48,0,0,0-1.13-3.46A5.08,5.08,0,0,0,441.34,385.17Z" transform="translate(-251.93 -318.64)"></path><path class="cls-3" d="M459.16,396.1h-.88l-3.45-5.18,3.3-3.89h.67a.6.6,0,0,0,.64-.63V386a.6.6,0,0,0-.64-.63h-3.23a.59.59,0,0,0-.63.63v.44a.59.59,0,0,0,.63.63h.24l-3.9,4.86V387h.61a.6.6,0,0,0,.64-.63V386a.6.6,0,0,0-.64-.63h-3.2a.59.59,0,0,0-.63.63v.44a.59.59,0,0,0,.63.63H450v9.07h-.67a.61.61,0,0,0-.64.64v.43a.61.61,0,0,0,.64.64h3.21a.61.61,0,0,0,.64-.64v-.43a.61.61,0,0,0-.64-.64h-.61v-1.74l1.71-2,3.39,5.09a.81.81,0,0,0,.71.38h1.44a.6.6,0,0,0,.63-.64v-.43A.6.6,0,0,0,459.16,396.1Z" transform="translate(-251.93 -318.64)"></path><path class="cls-3" d="M470,393.84h-.5a.61.61,0,0,0-.63.64v1.59h-4.06v-3.59h3.42a.62.62,0,0,0,.63-.64v-.47a.62.62,0,0,0-.63-.63h-3.42v-3.67h4v1.59a.61.61,0,0,0,.63.64h.5a.62.62,0,0,0,.64-.64V386a.67.67,0,0,0-.7-.7h-7.69a.62.62,0,0,0-.64.63v.44a.61.61,0,0,0,.64.63h.65v9.07h-.67a.61.61,0,0,0-.63.64v.43a.61.61,0,0,0,.63.64H470a.66.66,0,0,0,.7-.7v-2.63A.62.62,0,0,0,470,393.84Z" transform="translate(-251.93 -318.64)"></path><path class="cls-3" d="M484.5,385.33h-3.2a.59.59,0,0,0-.63.63v.44a.59.59,0,0,0,.63.63H482v7.19l-5.69-8.51a.8.8,0,0,0-.71-.38h-1.77a.59.59,0,0,0-.63.63v.44a.59.59,0,0,0,.63.63h.66v9.07h-.67a.61.61,0,0,0-.64.64v.43a.61.61,0,0,0,.64.64h3.28a.6.6,0,0,0,.63-.64v-.43a.6.6,0,0,0-.63-.64h-.71V389l5.71,8.45a.82.82,0,0,0,.72.38h.38a.66.66,0,0,0,.7-.7V387h.61a.6.6,0,0,0,.64-.63V386A.6.6,0,0,0,484.5,385.33Z" transform="translate(-251.93 -318.64)"></path><path class="cls-3" d="M504.08,385.33h-3.22a.59.59,0,0,0-.63.63v.44a.59.59,0,0,0,.63.63h.66v3.66H496V387h.61a.6.6,0,0,0,.64-.63V386a.6.6,0,0,0-.64-.63h-3.2a.59.59,0,0,0-.63.63v.44a.59.59,0,0,0,.63.63h.66v9.07h-.67a.61.61,0,0,0-.64.64v.43a.61.61,0,0,0,.64.64h3.21a.61.61,0,0,0,.64-.64v-.43a.61.61,0,0,0-.64-.64H496v-3.64h5.5v3.64h-.67a.61.61,0,0,0-.64.64v.43a.61.61,0,0,0,.64.64h3.23a.6.6,0,0,0,.63-.64v-.43a.6.6,0,0,0-.63-.64h-.63V387h.63a.59.59,0,0,0,.63-.63V386A.59.59,0,0,0,504.08,385.33Z" transform="translate(-251.93 -318.64)"></path><path class="cls-3" d="M512.69,385.17c-3.38,0-5.65,2.56-5.65,6.37s2.27,6.43,5.65,6.43,5.62-2.59,5.62-6.43S516.1,385.17,512.69,385.17Zm3.67,6.4c0,2.79-1.44,4.6-3.67,4.6s-3.7-1.85-3.7-4.6,1.49-4.6,3.7-4.6S516.36,388.78,516.36,391.57Z" transform="translate(-251.93 -318.64)"></path><path class="cls-3" d="M531.29,385.33H528.1a.6.6,0,0,0-.64.63v.44a.6.6,0,0,0,.64.63h.65v5.56c0,2.35-.87,3.54-2.58,3.54-1.17,0-2.58-.61-2.58-3.54V387h.61a.6.6,0,0,0,.64-.63V386a.6.6,0,0,0-.64-.63H521a.59.59,0,0,0-.63.63v.44a.59.59,0,0,0,.63.63h.66v5.56c0,3.37,1.69,5.38,4.51,5.38s4.52-2,4.52-5.38V387h.6a.6.6,0,0,0,.64-.63V386A.6.6,0,0,0,531.29,385.33Z" transform="translate(-251.93 -318.64)"></path><path class="cls-3" d="M539.33,390.76c-1.82-.35-2.93-.64-2.93-2.07,0-1.12.86-1.74,2.42-1.74A2.18,2.18,0,0,1,541,388a1.08,1.08,0,0,0-.27.72,1.09,1.09,0,0,0,1.09,1.11,1.13,1.13,0,0,0,1.13-1.12,3,3,0,0,0-.78-2.32,4.47,4.47,0,0,0-3.34-1.24c-2.73,0-4.37,1.33-4.37,3.56,0,2.84,2.3,3.28,4.14,3.64s2.81.62,2.81,1.91c0,1.56-1.46,1.89-2.68,1.89-1.46,0-2.33-.47-2.61-1a1,1,0,0,0,.24-.68,1,1,0,0,0-1.08-1.11,1.11,1.11,0,0,0-1.14,1.14h0a2.93,2.93,0,0,0,.78,2.22,5.2,5.2,0,0,0,3.81,1.18c2.9,0,4.63-1.38,4.63-3.7C543.35,391.54,541.12,391.11,539.33,390.76Z" transform="translate(-251.93 -318.64)"></path><path class="cls-3" d="M554.15,393.84h-.5a.62.62,0,0,0-.64.64v1.59H549v-3.59h3.42a.62.62,0,0,0,.64-.64v-.47a.62.62,0,0,0-.64-.63H549v-3.67h4v1.59a.62.62,0,0,0,.64.64h.5a.62.62,0,0,0,.63-.64V386a.66.66,0,0,0-.7-.7h-7.69a.62.62,0,0,0-.63.63v.44a.61.61,0,0,0,.63.63H547v9.07h-.67a.62.62,0,0,0-.64.64v.43a.62.62,0,0,0,.64.64h7.73a.66.66,0,0,0,.7-.7v-2.63A.61.61,0,0,0,554.15,393.84Z" transform="translate(-251.93 -318.64)"></path><path class="cls-2" d="M579,355.05a3.66,3.66,0,0,0-1.08.2,8.79,8.79,0,0,0-3.11,1.8,41.73,41.73,0,0,1-5.5,4c-.95.59-1.88,1.13-2.81,1.63s-1.79.92-2.6,1.27a18.89,18.89,0,0,1-2.19.82,7.31,7.31,0,0,1-2.17.29,5.63,5.63,0,0,1-2.61-.73,39.17,39.17,0,0,0,6.74-3.48l.8-.54q.59-.37,1.29-.93,4.46-3.41,4.46-6.23a3.35,3.35,0,0,0-1.47-2.86,5.66,5.66,0,0,0-3.37-1,19.41,19.41,0,0,0-6,1.2,31.28,31.28,0,0,0-10.14,5.57c-.28.23-.55.47-.81.71l-.25.22a41.08,41.08,0,0,1-5.5,4c-.94.59-1.88,1.13-2.8,1.63s-1.8.92-2.61,1.27a18.14,18.14,0,0,1-2.18.82,7.38,7.38,0,0,1-2.18.29,5.66,5.66,0,0,1-2.61-.73,39.72,39.72,0,0,0,6.75-3.48l.8-.54c.38-.25.81-.56,1.28-.93,3-2.27,4.46-4.35,4.46-6.23a3.34,3.34,0,0,0-1.46-2.86,5.69,5.69,0,0,0-3.37-1,19.47,19.47,0,0,0-6,1.2,31.23,31.23,0,0,0-10.13,5.57q-4,3.31-4.78,6.93c-.28.17-.62.39-1,.65a22.48,22.48,0,0,1-3,1.72,7.07,7.07,0,0,1-3.06.81,12.24,12.24,0,0,1-2.07-.64l-4.14-1.49c-.82-.29-2.21-.76-4.2-1.39-.65-.2-1.23-.35-1.75-.47a8.86,8.86,0,0,0-1.95-.18,5.05,5.05,0,0,0-2,.38l5.7-3.37,8.16-5.06,4-2.62q6.55-4.41,6.67-5.68a4.32,4.32,0,0,0-1.13-3.15,5.29,5.29,0,0,0-1-1,1.61,1.61,0,0,0-.91-.37l-1.58.06-2.89.16-3.66.25-4.1.28-4.17.27c-1.39.1-2.69.19-3.9.25l-3.23.17c-1,0-1.78.07-2.48.07a8.48,8.48,0,0,0-3.3,1.19,19.88,19.88,0,0,0-2.06,1.25,17.72,17.72,0,0,0-1.86,1.47,11.9,11.9,0,0,0-1.56,1.78,2.22,2.22,0,0,0-.36,2.12,1.73,1.73,0,0,0,1.84,1.17,5.59,5.59,0,0,0,2.89-1.17l1.42-1a5.07,5.07,0,0,1,1.2-.7,26.6,26.6,0,0,1,4.52-.23h2.42c.84,0,2,0,3.47,0H504c.56,0,.84.06.84.16a60.2,60.2,0,0,1-5.39,4l-11.62,7.94c-.64.42-1.05.69-1.25.8l-2.86,1.78c-.66.43-1.36.9-2.07,1.41s-1.38,1-2,1.54a13.78,13.78,0,0,0-1.53,1.53,3,3,0,0,0-.71,1.59,2.58,2.58,0,0,0,.87,1.89,3,3,0,0,0,.85.72,2.89,2.89,0,0,0,1.44.28,7.81,7.81,0,0,0,2.27-.41c.86-.27,1.71-.57,2.54-.89s1.65-.61,2.46-.88a7.56,7.56,0,0,1,2.49-.41,24.61,24.61,0,0,1,5.69,1.46l6.86,2.22a16,16,0,0,0,4.15.93,13.34,13.34,0,0,0,8.69-3.46l2-1.71a9.79,9.79,0,0,0,.87-.92,7.93,7.93,0,0,0,1.91,1.81,11.35,11.35,0,0,0,6.63,2,27,27,0,0,0,10.27-2.17,36.55,36.55,0,0,0,4.53-2.2c.83-.47,1.61-1,2.36-1.43a6.43,6.43,0,0,0,2.84,3.83,11.4,11.4,0,0,0,6.64,2,27,27,0,0,0,10.27-2.17,36.4,36.4,0,0,0,4.52-2.2q2.13-1.21,3.9-2.46c1.17-.83,2.2-1.62,3.08-2.37s1.66-1.49,2.34-2.19a8.15,8.15,0,0,0,1.57-2.26,5.21,5.21,0,0,0,.54-2C580,355.45,579.67,355.05,579,355.05Zm-49.88,5.62-1.22.62a5.89,5.89,0,0,1-.16-1.58,4,4,0,0,1,1.18-2.42,7.72,7.72,0,0,1,1.19-1.16,9.44,9.44,0,0,1,1.4-.93,7.82,7.82,0,0,1,1.46-.61,4.47,4.47,0,0,1,1.32-.23,1.5,1.5,0,0,1,1.13.63,1.67,1.67,0,0,1,.35.55,1.44,1.44,0,0,1,.14.54c0,.16-.21.44-.62.84a45.1,45.1,0,0,1-5.11,3.17C529.83,360.27,529.48,360.46,529.08,360.67Zm26.64,0-1.22.62a5.89,5.89,0,0,1-.16-1.58,4,4,0,0,1,1.18-2.42,8.11,8.11,0,0,1,1.18-1.16,9,9,0,0,1,1.41-.93,7.74,7.74,0,0,1,1.45-.61,4.47,4.47,0,0,1,1.32-.23A1.52,1.52,0,0,1,562,355a2.06,2.06,0,0,1,.35.55,1.4,1.4,0,0,1,.13.54c0,.16-.2.44-.62.84a43.46,43.46,0,0,1-5.1,3.17C556.47,360.27,556.11,360.46,555.72,360.67Z" transform="translate(-251.93 -318.64)"></path><path class="cls-2" d="M477.77,355.05a3.67,3.67,0,0,0-1.09.2,8.88,8.88,0,0,0-3.11,1.8,41.08,41.08,0,0,1-5.5,4c-.95.59-1.88,1.13-2.81,1.63s-1.79.92-2.6,1.27a18.23,18.23,0,0,1-2.19.82,7.26,7.26,0,0,1-2.17.29,5.63,5.63,0,0,1-2.61-.73,39.72,39.72,0,0,0,6.75-3.48l.79-.54q.58-.37,1.29-.93Q469,356,469,353.19a3.37,3.37,0,0,0-1.46-2.86,5.7,5.7,0,0,0-3.38-1,19.41,19.41,0,0,0-6,1.2A31.28,31.28,0,0,0,448,356.12c-.28.23-.55.47-.81.71l-.24.22a41.87,41.87,0,0,1-5.51,4c-.94.59-1.88,1.13-2.8,1.63s-1.8.92-2.61,1.27a18.14,18.14,0,0,1-2.18.82,7.38,7.38,0,0,1-2.18.29,5.62,5.62,0,0,1-2.6-.73,40,40,0,0,0,6.74-3.48l.8-.54q.57-.37,1.29-.93,4.46-3.41,4.45-6.23a3.34,3.34,0,0,0-1.46-2.86,5.69,5.69,0,0,0-3.37-1,19.36,19.36,0,0,0-6,1.2,31.28,31.28,0,0,0-10.14,5.57q-4,3.31-4.78,6.93c-.28.17-.62.39-1,.65a22.48,22.48,0,0,1-3,1.72,7.07,7.07,0,0,1-3.06.81,12,12,0,0,1-2.06-.64l-4.15-1.49c-.82-.29-2.21-.76-4.2-1.39-.65-.2-1.23-.35-1.75-.47a8.86,8.86,0,0,0-1.95-.18,5.12,5.12,0,0,0-2,.38l5.7-3.37,8.16-5.06,4-2.62q6.56-4.41,6.67-5.68a4.32,4.32,0,0,0-1.13-3.15,5.29,5.29,0,0,0-1-1,1.61,1.61,0,0,0-.91-.37l-1.58.06-2.89.16-3.66.25-4.1.28-4.17.27c-1.39.1-2.69.19-3.89.25l-3.24.17c-1,0-1.78.07-2.48.07a8.48,8.48,0,0,0-3.3,1.19,18.77,18.77,0,0,0-2.05,1.25,16.88,16.88,0,0,0-1.87,1.47,11.9,11.9,0,0,0-1.56,1.78,2.22,2.22,0,0,0-.36,2.12,1.73,1.73,0,0,0,1.85,1.17,5.57,5.57,0,0,0,2.88-1.17l1.42-1a5.28,5.28,0,0,1,1.2-.7,26.6,26.6,0,0,1,4.52-.23H394c.84,0,2,0,3.47,0h5.36c.56,0,.84.06.84.16a58.32,58.32,0,0,1-5.39,4l-11.62,7.94c-.64.42-1.05.69-1.24.8l-2.87,1.78q-1,.64-2.07,1.41c-.72.51-1.38,1-2,1.54a13.78,13.78,0,0,0-1.53,1.53,3,3,0,0,0-.71,1.59,2.58,2.58,0,0,0,.87,1.89,3,3,0,0,0,.85.72,2.89,2.89,0,0,0,1.44.28,7.81,7.81,0,0,0,2.27-.41c.86-.27,1.71-.57,2.54-.89s1.65-.61,2.46-.88a7.56,7.56,0,0,1,2.49-.41,24.65,24.65,0,0,1,5.7,1.46l6.85,2.22a16,16,0,0,0,4.15.93,13.36,13.36,0,0,0,8.7-3.46l2-1.71a8.64,8.64,0,0,0,.87-.92,7.93,7.93,0,0,0,1.91,1.81,11.35,11.35,0,0,0,6.63,2,27,27,0,0,0,10.27-2.17,36.55,36.55,0,0,0,4.53-2.2c.83-.47,1.61-1,2.36-1.43a6.41,6.41,0,0,0,2.85,3.83,11.35,11.35,0,0,0,6.63,2,27,27,0,0,0,10.27-2.17,36.55,36.55,0,0,0,4.53-2.2q2.11-1.21,3.89-2.46c1.17-.83,2.2-1.62,3.08-2.37s1.66-1.49,2.34-2.19a8.15,8.15,0,0,0,1.57-2.26,5.21,5.21,0,0,0,.54-2C478.83,355.45,478.48,355.05,477.77,355.05Zm-49.89,5.62-1.22.62a6.33,6.33,0,0,1-.16-1.58,4.1,4.1,0,0,1,1.18-2.42,8.19,8.19,0,0,1,1.19-1.16,9,9,0,0,1,1.41-.93,7.47,7.47,0,0,1,1.45-.61,4.47,4.47,0,0,1,1.32-.23,1.49,1.49,0,0,1,1.13.63,1.87,1.87,0,0,1,.36.55,1.61,1.61,0,0,1,.13.54c0,.16-.21.44-.62.84a45.1,45.1,0,0,1-5.11,3.17C428.63,360.27,428.28,360.46,427.88,360.67Zm26.64,0-1.22.62a5.89,5.89,0,0,1-.16-1.58,4,4,0,0,1,1.18-2.42,8.11,8.11,0,0,1,1.18-1.16,9,9,0,0,1,1.41-.93,7.74,7.74,0,0,1,1.45-.61,4.58,4.58,0,0,1,1.32-.23,1.52,1.52,0,0,1,1.14.63,2.06,2.06,0,0,1,.35.55,1.4,1.4,0,0,1,.13.54c0,.16-.2.44-.62.84a43.46,43.46,0,0,1-5.1,3.17C455.27,360.27,454.92,360.46,454.52,360.67Z" transform="translate(-251.93 -318.64)"></path><path class="cls-3" d="M348.16,387a88.91,88.91,0,0,1-9.71.42c-1.05,0-2.07,0-3.07-.09-17.42-.85-28.37-6.94-31.46-8.89a29.77,29.77,0,0,0,5.71-5.56c.75.53,1.72,1.62,2.93,6a.68.68,0,0,0,.39.45.64.64,0,0,0,.6,0,13,13,0,0,1,4.66-1.38.71.71,0,0,0,.53-.29.67.67,0,0,0,.1-.58c-.06-.23-1.59-5.55-5.39-7.46-.42-.2-.92-.54-.93-.93,0-.59.84-1.41,1.65-2a4.16,4.16,0,0,0,3.61,2.09,4.27,4.27,0,0,0,1.44-.25c2.14,1.36,15.47,9.55,26.28,9.55.55,0,1.1,0,1.63-.07a2.71,2.71,0,0,0,.41,0,16.71,16.71,0,0,0-.37,2.35q-.06.66-.06,1.26a.29.29,0,0,0,0,.09.49.49,0,0,0,0,.12,12.55,12.55,0,0,0,1.06,5.18" transform="translate(-251.93 -318.64)"></path><path class="cls-4" d="M355.8,327.29c-.07,2.73-2.68,5.44-3.82,6.51-1.61-2.07-5.18-5.58-12.31-1.56h0c-1.36.6-5.25,2-7,1.16a1.3,1.3,0,0,1-.75-.85,2.23,2.23,0,0,1,.3-2.2c1.65-1.95,7.3-1.79,9.68-1.54l.31,0a.69.69,0,0,0,.15-1.37l-.28,0c-1.06-.14-3.25-.65-4-1.78a1.66,1.66,0,0,1-.09-1.55,2,2,0,0,1,1.25-1.27c2.55-.93,7.83,1.59,9.74,2.69l.07,0a.69.69,0,0,0,.94-.25.7.7,0,0,0-.25-.94l-.05,0c-.76-.44-1.19-1-1.15-1.49a1,1,0,0,1,.68-.79c1-.4,2.82-.11,5,1.88a4.21,4.21,0,0,1,1.56,3.32" transform="translate(-251.93 -318.64)"></path><path class="cls-4" d="M348.7,375.16c-.21.46-.44.91-.69,1.37-9.86,1.46-23.91-6.63-27.46-8.8a4.21,4.21,0,0,0,1.07-1.5c3.1,1.94,15.09,9,25.19,9,.64,0,1.26,0,1.89-.09" transform="translate(-251.93 -318.64)"></path><path class="cls-4" d="M317.25,376.65a14.84,14.84,0,0,0-3.59,1.09c-1.43-4.87-2.63-5.63-3.6-6.26l-.15-.09-.1-.07a1.66,1.66,0,0,1-.67-.92c-.57-1.54,2.56-3.8,3.84-4.56h0c-.87.67-1.91,1.72-1.88,2.88a2.54,2.54,0,0,0,1.68,2.13c2.46,1.23,3.87,4.35,4.42,5.81" transform="translate(-251.93 -318.64)"></path><path class="cls-4" d="M320.57,364.63a2.79,2.79,0,0,1-4.67,2.05,8.52,8.52,0,0,0,4.67-2.05" transform="translate(-251.93 -318.64)"></path><path class="cls-4" d="M320.09,363.06c-1.2,1.81-3.91,2.23-5,2.32a2.74,2.74,0,0,1-.11-.76,2.79,2.79,0,0,1,5.1-1.56" transform="translate(-251.93 -318.64)"></path><path class="cls-4" d="M313.73,363.66h0a3.85,3.85,0,0,0-.1.68c-.68.11-1.87.3-3.12.47s-2.53.3-3.41.32-1.42-.12-1.62-.39-.34-1,.24-2.87a1,1,0,0,1,.61-.67c1.21-.52,3.61.09,5.56.8a15.32,15.32,0,0,0,1.84,1.66" transform="translate(-251.93 -318.64)"></path><path class="cls-4" d="M315.38,361.22a3.48,3.48,0,0,0-.58.5c-.34-.17-1.14-.53-2.15-.91-.53-.56-1-1.14-1.4-1.62h.14a7.36,7.36,0,0,0,2-.36h0a9.69,9.69,0,0,0,2,2.39" transform="translate(-251.93 -318.64)"></path><path class="cls-5" d="M353.35,344.12a1.93,1.93,0,0,1,.06,2.15c-.7,1.05-1.6,1.74-4.58.53a.69.69,0,0,0-.89.91c.07.16,5.8,14,1.36,25.85-10.45,1.5-25.1-7.46-27.36-8.89a1.21,1.21,0,0,0,0-.19,4,4,0,0,0-.43-1.82.2.2,0,0,0,0-.08,4.13,4.13,0,0,0-3.7-2.27,4.62,4.62,0,0,0-1,.12h0a7.82,7.82,0,0,1-2.13-2.26A9.54,9.54,0,0,0,317,356.5a12.62,12.62,0,0,0,2-2.48,70.28,70.28,0,0,1,11.87-13.58,56.42,56.42,0,0,1,9.48-7.11l0,0c6.76-3.82,9.58-.18,10.95,1.7l.07.09h0l.17.23c.9,1.21,2.73,1.65,4,1.81a6.35,6.35,0,0,1-3.25,1.23.71.71,0,0,0-.52.27.68.68,0,0,0-.12.57,13.72,13.72,0,0,0,1.69,4.9" transform="translate(-251.93 -318.64)"></path><path class="cls-4" d="M293.94,324.11c-1.09.44-4.95,1.53-13.48-.28a67,67,0,0,0-16.57-1.16L277.3,339.4a70.16,70.16,0,0,1,11.25-.87,64.79,64.79,0,0,1,8.53.54c8.21,1.09,11.54-.48,12.54-1.14Zm10.12,13c-.55,0-1.13.06-1.75.06a36.69,36.69,0,0,1-4.88-.36,81.23,81.23,0,0,0-10.44-.69c-3.17,0-6.26.15-7.67.29a.47.47,0,0,1-.42-.16l-9.1-10.71a.39.39,0,0,1-.06-.46.46.46,0,0,1,.44-.24,57.54,57.54,0,0,1,9.74,1.15,43.73,43.73,0,0,0,9,1.06,21.8,21.8,0,0,0,4.18-.37.45.45,0,0,1,.42.11l10.86,9.57a.39.39,0,0,1,.12.46.48.48,0,0,1-.4.29" transform="translate(-251.93 -318.64)"></path><path class="cls-5" d="M302.91,336.32a34.89,34.89,0,0,1-5.35-.34,81.35,81.35,0,0,0-10.57-.7c-2.69,0-5.78.12-7.51.27l-8.31-9.77a56,56,0,0,1,8.54,1.09c5.33,1.13,9.91,1.38,13.31.73Z" transform="translate(-251.93 -318.64)"></path><path class="cls-1" d="M286.16,380.17c-5.77-7.5-13.8.55-13.8.55s-2.12-3.67,2.56-7a8.32,8.32,0,0,1,8.79-.77.39.39,0,0,1,.11.06,13.36,13.36,0,0,1,2,1.44c0,.15,0,.32-.05.48a16.32,16.32,0,0,0,.39,5.23" transform="translate(-251.93 -318.64)"></path><path class="cls-5" d="M289.39,366.12a17,17,0,0,0-3.57,8.34,13.36,13.36,0,0,0-2-1.44c-.61-.44-8.82-6-16.56,1.61,0,0,1.5-8.46,10.1-10.57.37-.1.74-.17,1.1-.24h0a19.79,19.79,0,0,1,4.9.18A17.7,17.7,0,0,1,289.39,366.12Z" transform="translate(-251.93 -318.64)"></path><path class="cls-3" d="M325.07,343.5c-.29.32-.59.63-.86.94l-28.44-24.62a7.87,7.87,0,0,0,1.49-.71Z" transform="translate(-251.93 -318.64)"></path><path class="cls-5" d="M326.23,380.73a1,1,0,0,1,.44.08,2,2,0,0,1,.38.18l.31.23c.35.28.6.47.74.6l.72.61a1.66,1.66,0,0,0,.36.28,1.43,1.43,0,0,0,.67.07,4.89,4.89,0,0,0,.73-.11,1.93,1.93,0,0,1,.44-.08.54.54,0,0,1,.22.05.27.27,0,0,1,.16.14.25.25,0,0,1,0,.22.94.94,0,0,1-.18.24,2,2,0,0,1-.26.23,2.61,2.61,0,0,1-.58.34l-.53.19a2.76,2.76,0,0,1-2,0,3.23,3.23,0,0,1-.76-.5l-1.2-1a5.87,5.87,0,0,0-1-.73,1.61,1.61,0,0,0-.53-.1h-.56l-.58,0a1.58,1.58,0,0,1-.48-.09.66.66,0,0,1-.27-.16.72.72,0,0,1-.12-.21.6.6,0,0,1,0-.45.75.75,0,0,1,.27-.26,2.76,2.76,0,0,1,.42-.19l.51-.16.53-.12.7-.14.31-.07,2.93-.7c.92-.24,1.38-.37,1.39-.39s0-.06-.16-.1l-1.07-.41-.7-.26-.48-.18a5.54,5.54,0,0,0-.93-.3,1.26,1.26,0,0,0-.29.05l-.36.09a1.28,1.28,0,0,1-.67,0,.39.39,0,0,1-.28-.38.51.51,0,0,1,.24-.4,3.74,3.74,0,0,1,.44-.23c.15-.06.32-.11.49-.16l.5-.09a2,2,0,0,1,.76,0l.5.18.66.21.8.24.85.27.85.25.75.23.59.19.32.1a.35.35,0,0,1,.15.15,1.46,1.46,0,0,1,.13.28,1,1,0,0,1,0,.71q-.12.25-1.77.63l-1,.22-2,.4Z" transform="translate(-251.93 -318.64)"></path><path class="cls-5" d="M335.78,383a1,1,0,0,1,.39,0,1.88,1.88,0,0,1,.35.1l.31.14.73.39.71.41.36.19a1.38,1.38,0,0,0,.59-.05,5.87,5.87,0,0,0,.6-.22,1.67,1.67,0,0,1,.37-.14.61.61,0,0,1,.19,0,.24.24,0,0,1,.16.09.21.21,0,0,1,0,.19.86.86,0,0,1-.11.24,2,2,0,0,1-.19.24,2.12,2.12,0,0,1-.44.39l-.42.25a2.52,2.52,0,0,1-1.71.36,3,3,0,0,1-.73-.31l-1.19-.63a4.91,4.91,0,0,0-1-.45,1.24,1.24,0,0,0-.47,0l-.48.08-.5.08a1.54,1.54,0,0,1-.43,0,.55.55,0,0,1-.25-.09.7.7,0,0,1-.14-.16.51.51,0,0,1-.1-.38.59.59,0,0,1,.18-.27,2.75,2.75,0,0,1,.33-.23,4.13,4.13,0,0,1,.42-.22c.15-.07.29-.14.43-.19l.58-.24.25-.1,2.4-1.09c.74-.35,1.11-.54,1.12-.56s-.05,0-.15-.06l-1-.17-.64-.11-.44-.08a5.27,5.27,0,0,0-.84-.1.72.72,0,0,0-.24.09l-.3.14a1.12,1.12,0,0,1-.57.12.33.33,0,0,1-.3-.28.41.41,0,0,1,.14-.37,2.2,2.2,0,0,1,.34-.28,3.44,3.44,0,0,1,.81-.37,1.61,1.61,0,0,1,.65-.12l.45.07.6.07.73.08.77.09.77.08.68.07.53.06.3,0a.26.26,0,0,1,.15.1,1,1,0,0,1,.16.22.77.77,0,0,1,.1.61c0,.15-.51.43-1.41.83l-.82.35-1.66.67Z" transform="translate(-251.93 -318.64)"></path><path class="cls-3" d="M346.71,335.45a1.45,1.45,0,1,0,1.45,1.45,1.45,1.45,0,0,0-1.45-1.45" transform="translate(-251.93 -318.64)"></path><path class="cls-1" d="M346.84,369.81a1.07,1.07,0,0,1-.57-.16c-.89-.52-1.41-2.67-1.69-4.42-1.16,1.54-3,3.54-4.64,2.92-2.31-.91-1.61-4.83-1.52-5.27a.66.66,0,1,1,1.29.26c-.2,1.06-.3,3.38.71,3.78s2.9-2,4-3.83a.65.65,0,0,1,.71-.3.66.66,0,0,1,.51.57c.24,2.31.79,4.58,1.21,5.09.65-.42,1.22-2,1.42-3a.66.66,0,0,1,1.3.25c-.07.34-.7,3.37-2.33,4.05a1.25,1.25,0,0,1-.42.08" transform="translate(-251.93 -318.64)"></path><path class="cls-1" d="M333.73,368.34a2.4,2.4,0,0,1-1.08-.27c-1.87-1-1.59-4.22-1.1-6.53a4.68,4.68,0,0,1-4.49,1.09c-3.24-1.21-1.22-7.82-1-8.57a.66.66,0,0,1,1.26.41c-.65,2-1.45,6.32.18,6.93,2.25.84,4.76-2.43,4.78-2.46a.66.66,0,0,1,1.15.61c-.69,2.06-1.65,6.57-.18,7.35s4.05-2.46,5.09-4.15a.66.66,0,0,1,1.12.7c-.34.56-3.11,4.89-5.75,4.89" transform="translate(-251.93 -318.64)"></path><path class="cls-1" d="M344.11,360.36a1.16,1.16,0,0,1-.56-.16c-.89-.53-1.41-2.67-1.7-4.43-1.15,1.54-3,3.55-4.63,2.92-2.31-.9-1.61-4.82-1.52-5.27a.66.66,0,0,1,1.29.26c-.21,1.06-.31,3.39.71,3.78s2.9-2,4-3.83a.66.66,0,0,1,1.22.28c.24,2.3.79,4.58,1.21,5.08.65-.42,1.21-2,1.42-3a.66.66,0,0,1,1.29.25c-.06.35-.7,3.37-2.32,4a1.11,1.11,0,0,1-.43.09" transform="translate(-251.93 -318.64)"></path><path class="cls-1" d="M337.81,397.47a51.47,51.47,0,0,1,3.94-4.53.64.64,0,0,0-.44-1.1l-1.14,0a.62.62,0,0,0-.49.21l-2.44,2.74a.7.7,0,0,1-.56.23,40,40,0,0,0-11.15,1.07.7.7,0,0,1-.73-.25.72.72,0,0,1,0-.77,4.27,4.27,0,0,0-.11-3.54,78.92,78.92,0,0,1-11.18.76c.92,1,2.95,2.41,7,2.41a.67.67,0,0,1,.63.43.7.7,0,0,1-.16.76,1.62,1.62,0,0,0,.28,2.55l.94.56a1.6,1.6,0,0,0,1.33.15c2.26-.74,6.8-2.25,11.41-1.52h0A1.92,1.92,0,0,0,337.81,397.47Z" transform="translate(-251.93 -318.64)"></path><path class="cls-5" d="M284.61,401.8c4.38-1.63,8-6.25,8.1-6.45a.67.67,0,0,0-.08-.93,3.48,3.48,0,0,1-1.34-2.64,3.18,3.18,0,0,1,.11-.82l.05-.17c.11-.34.26-1.75.39-2,.27-.47-3.1-5.5-3.26-5.82s-.35-.73-.5-1a15,15,0,0,1,2.43-15.14c.22.14.44.3.65.46a20.18,20.18,0,0,1,2.16,1.86l.06.05a25.81,25.81,0,0,0,4.72,3.7l.07,0,0,0c.3.16.61.33.94.49a11.05,11.05,0,0,0,5.49,1.39h0a6.92,6.92,0,0,0,1.54-.32,14.87,14.87,0,0,1-3.87,3.07.69.69,0,0,0-.13,1.18c.14.1,10.79,7.86,29.92,9.54,0,0,0,0,0,0a47.71,47.71,0,0,1-7,1.58h0l-.13,0a93.22,93.22,0,0,1-22.2.3,5.41,5.41,0,0,1-.63,1.33s0,0,0,0a1.34,1.34,0,0,1-.11.14,1.19,1.19,0,0,0-.09.15h0a7,7,0,0,1-4.4,2.57c-1.24,1.57-5.33,7.44-12.23,9.3a9.26,9.26,0,0,1-.15,4,1.43,1.43,0,0,1-1.73.8l-.38-.16a.93.93,0,0,1-.58-1,18.18,18.18,0,0,0-.72-7c-.06-.18.61-.77.75-.66a6.08,6.08,0,0,1,1.53,1.37Z" transform="translate(-251.93 -318.64)"></path><path class="cls-1" d="M310,359.87l-.06,0a8.47,8.47,0,0,0-3.73-.22h0c-.22-.23-7.28-7.6-16.65-8.83h0c-5.79-2.46-13.33-.74-13.83-.63h0a11.34,11.34,0,0,1,2.17-2.1h0c2.42-1.87,6.94-4.15,13.83-3.16,11,1.57,16.93,9.43,18.25,14.87Z" transform="translate(-251.93 -318.64)"></path><path class="cls-1" d="M266.46,366.05l-.37.21C266.18,366.21,266.3,366.13,266.46,366.05Z" transform="translate(-251.93 -318.64)"></path><path class="cls-1" d="M304.62,373.17a11.45,11.45,0,0,1-6.43-1.88c.3.16.61.33.94.49A11.05,11.05,0,0,0,304.62,373.17Z" transform="translate(-251.93 -318.64)"></path><path class="cls-1" d="M307.73,370.6a2.25,2.25,0,0,1-.11-.72,3.15,3.15,0,0,1,.37-1.41A3.13,3.13,0,0,0,307.73,370.6Z" transform="translate(-251.93 -318.64)"></path><path class="cls-1" d="M308,368.47a3.15,3.15,0,0,0-.37,1.41,2.25,2.25,0,0,0,.11.72l0,.11s0,0,0,0a2.34,2.34,0,0,0,.47.9l0,0h0a6.22,6.22,0,0,1-3.61,1.5h0a11.05,11.05,0,0,1-5.49-1.39c-.33-.16-.64-.33-.94-.49h0a25.81,25.81,0,0,1-4.79-3.74l-.06-.06a18,18,0,0,0-9.94-5.15c-5.94-1-11.6,1.08-14.79,2.6l-.09,0-.19.1-.38.18-.27.14-.16.08-.06,0-.33.18-.42.23-.06,0-.17.11c-.16.08-.28.16-.37.21a.25.25,0,0,1-.08.05l-.05,0h-.06c.32-.39,6.33-7.48,18.34-8.06.5,0,1,0,1.49,0a31.08,31.08,0,0,1,14.18,3.42c.27.13.52.27.77.4s.58.32.84.48l.27.16c.42.25.78.49,1.1.7l.54.37.39.29.05,0a1.1,1.1,0,0,0,0,.26,1.55,1.55,0,0,0,0,.21.83.83,0,0,0,.06.21,1.07,1.07,0,0,0,.07.19,1.68,1.68,0,0,0,.15.3,1.71,1.71,0,0,0,.11.14l.15.18a2,2,0,0,0,.4.31l.14.08a.67.67,0,0,0,.12.06h0l.21.09.21.06.22,0,.22,0,.29,0c.2,0,.4,0,.59,0h.17a28.47,28.47,0,0,0,2.85-.24h0a7.19,7.19,0,0,0-1.88,2.23Z" transform="translate(-251.93 -318.64)"></path><path class="cls-5" d="M306.23,359.63h0c-1.68.37-1.87,1.74-2.24,3.29,0,.16-.06.31-.08.47a.68.68,0,0,0,0,.14,3,3,0,0,0,0,.6l-.05,0-.39-.29-.54-.37c-.32-.21-.68-.45-1.1-.7l-.27-.16c-.26-.16-.54-.31-.84-.48s-.5-.27-.77-.4a31.08,31.08,0,0,0-14.18-3.42c-.49,0-1,0-1.49,0-12,.58-18,7.67-18.34,8.06a15.75,15.75,0,0,1,8-12.31,25.15,25.15,0,0,1,15.68-3.28h0c9.37,1.23,16.43,8.6,16.65,8.83Z" transform="translate(-251.93 -318.64)"></path><polygon class="cls-5" points="13.99 47.74 13.98 47.75 13.98 47.74 13.99 47.74"></polygon><path class="cls-3" d="M317,339.67l-.1-.08L294.77,320.1h-.12l-.07,0-.17,0-.14,0a20.24,20.24,0,0,1-5,.53h-1.73l-.42,0c-.95,0-2-.11-3.17-.23-.55,0-1.12-.11-1.71-.19l-.14,0-.81-.11-.85-.12c-1.15-.18-2.38-.39-3.68-.65a44.36,44.36,0,0,0-4.42-.66l-.15,0h-.48c-.55,0-1.42-.07-2.49-.08-1.38,0-3.09,0-4.89.21h-.06c-.92.09-1.85.21-2.78.38h0a15.68,15.68,0,0,0-7.29,2.93s3.53-.08,4.32,1.6a1.84,1.84,0,0,1,.16.68c0,1.08-1.28,1.32-2.75,1.75l-.55.17c-1.59.53-3.2,1.42-3.44,4a19.23,19.23,0,0,1,4.22-1.22,11.32,11.32,0,0,1,3.63-.07,3.84,3.84,0,0,1,2.3,1.29c1.6,1.91-2.18,1.36-4.75,3a4.28,4.28,0,0,0-2,3,25.54,25.54,0,0,1,2.72-.25h.09a18,18,0,0,1,2.31,0c2.27.2,4.38,1,4.09,3.08s-4,2-4.83,1.86l-.1,0h-.07l0,.05,0,0a.76.76,0,0,0,.1.13l0,0,.05.07a.63.63,0,0,1,.1.12,8.72,8.72,0,0,0,1.15,1l.29.21.17.11.29.19.17.09a15.35,15.35,0,0,0,6.9,2h.27a25,25,0,0,0,4.18-.1h0c.84-.09,1.61-.18,2.33-.28l.12,0,.63-.09.84-.13.33-.06.59-.1.29-.06c.85-.16,1.6-.33,2.31-.48h0l.64-.15h0l.32-.07a29.89,29.89,0,0,1,5.19-.92h.18a4.61,4.61,0,0,1,.52,0,64.28,64.28,0,0,1,7.6.66l.15,0c7.61.82,16.07,2.07,22.66-2.71Zm-6.33-1.26c-.11.13-2.95,3.14-13.72,1.7a69.3,69.3,0,0,0-19.75.38h-.1a.48.48,0,0,1-.37-.17l-14.11-17.59a.42.42,0,0,1,0-.43.48.48,0,0,1,.39-.26,67.56,67.56,0,0,1,17.71,1.12c9.75,2.06,13.08.25,13.11.24a.5.5,0,0,1,.57,0l16.29,14.36A.41.41,0,0,1,310.7,338.41Z" transform="translate(-251.93 -318.64)"></path><path class="cls-3" d="M292.87,343.73h0Z" transform="translate(-251.93 -318.64)"></path><path class="cls-1" d="M364.56,365.51l.15-.25v-.05a2.31,2.31,0,0,0,.19-.56,3.52,3.52,0,0,0-.58-2.32,7.85,7.85,0,0,0-1.13-1.48,12.89,12.89,0,0,1-5.36,4.16,1.45,1.45,0,0,1-1.56-.29l-.08-.08h0c3.09-1.37,6.37-3.75,6.49-5.27.11-1.3-1.27-2.71-1.91-3.26-2.09,2.2-6.66,4-8.56,4.74a2.38,2.38,0,0,1,.12.68,29,29,0,0,1-3.26,15.9,16.19,16.19,0,0,0-.59,3.6c6.66.18,9.41-1.35,10.54-2.69a3.45,3.45,0,0,0,.82-1.83,33.64,33.64,0,0,1-5.49,1h-.08a.69.69,0,0,1-.08-1.37c7.63-.85,9.91-2.84,10.48-4.36A4.73,4.73,0,0,0,364,368a11.36,11.36,0,0,1-2.22,1.35h0a.65.65,0,0,1-.2,0,.59.59,0,0,1-.23-.05l-.07,0-.14-.1,0,0-.6-.56C361.14,368.3,363.58,367.06,364.56,365.51Z" transform="translate(-251.93 -318.64)"></path></svg>