<?xml version="1.0" encoding="UTF-8"?> <svg xmlns="http://www.w3.org/2000/svg" id="Layer_1" data-name="Layer 1" viewBox="0 0 270 90"><defs><style>.cls-1{fill:#26704a;}.cls-2{fill:#b82026;}.cls-3{fill:#da454c;}.cls-4{fill:#fcb34f;}.cls-5{fill:#e37625;}</style></defs><path class="cls-1" d="M128.11,61.8c-2.61,0-4.42,2.05-4.42,5s1.8,5,4.39,5a3.65,3.65,0,0,0,3.86-3,.47.47,0,0,0-.09-.39.46.46,0,0,0-.38-.16H131a.47.47,0,0,0-.5.41,2.26,2.26,0,0,1-2.39,1.78c-1.38,0-2.87-1.12-2.87-3.59,0-2.15,1.16-3.59,2.9-3.59a2.44,2.44,0,0,1,1.79.71,1.75,1.75,0,0,1,.52,1.15.85.85,0,0,0-.27.68.87.87,0,0,0,.9.9.91.91,0,0,0,.92-.91,3.51,3.51,0,0,0-.88-2.7A4,4,0,0,0,128.11,61.8Z"></path><path class="cls-1" d="M142.65,61.93h-2.51a.47.47,0,0,0-.5.49v.35a.47.47,0,0,0,.5.49h.51v2.86h-4.29V63.26h.47a.47.47,0,0,0,.5-.49v-.35a.47.47,0,0,0-.5-.49h-2.49a.47.47,0,0,0-.5.49v.35a.47.47,0,0,0,.5.49h.51v7.08h-.53a.47.47,0,0,0-.49.5v.34a.46.46,0,0,0,.49.49h2.51a.46.46,0,0,0,.5-.49v-.34a.47.47,0,0,0-.5-.5h-.47V67.5h4.29v2.84h-.52a.47.47,0,0,0-.5.5v.34a.46.46,0,0,0,.5.49h2.52a.46.46,0,0,0,.5-.49v-.34a.47.47,0,0,0-.5-.5h-.49V63.26h.49a.47.47,0,0,0,.5-.49v-.35A.47.47,0,0,0,142.65,61.93Z"></path><path class="cls-1" d="M148.11,61.93h-2.5a.47.47,0,0,0-.49.49v.35a.47.47,0,0,0,.49.49h.49v7.08h-.49a.47.47,0,0,0-.49.5v.34a.46.46,0,0,0,.49.49h2.5a.46.46,0,0,0,.5-.49v-.34a.47.47,0,0,0-.5-.5h-.5V63.26h.5a.47.47,0,0,0,.5-.49v-.35A.47.47,0,0,0,148.11,61.93Z"></path><path class="cls-1" d="M154.81,61.8c-2.6,0-4.42,2.05-4.42,5s1.81,5,4.39,5a3.65,3.65,0,0,0,3.86-3,.44.44,0,0,0-.09-.39.46.46,0,0,0-.37-.16h-.51a.48.48,0,0,0-.5.41,2.26,2.26,0,0,1-2.39,1.78c-1.38,0-2.87-1.12-2.87-3.59,0-2.15,1.17-3.59,2.9-3.59a2.43,2.43,0,0,1,1.79.71,1.75,1.75,0,0,1,.52,1.15.93.93,0,0,0,.63,1.58.91.91,0,0,0,.92-.91,3.47,3.47,0,0,0-.88-2.7A4,4,0,0,0,154.81,61.8Z"></path><path class="cls-1" d="M168.72,70.34H168l-2.69-4,2.58-3h.52a.47.47,0,0,0,.5-.49v-.35a.47.47,0,0,0-.5-.49h-2.52a.46.46,0,0,0-.49.49v.35a.46.46,0,0,0,.49.49h.18l-3,3.8v-3.8h.48a.47.47,0,0,0,.49-.49v-.35a.47.47,0,0,0-.49-.49H161a.47.47,0,0,0-.5.49v.35a.47.47,0,0,0,.5.49h.51v7.08H161a.47.47,0,0,0-.5.5v.34a.46.46,0,0,0,.5.49h2.51a.46.46,0,0,0,.49-.49v-.34a.47.47,0,0,0-.49-.5h-.48V69l1.34-1.57,2.64,4a.63.63,0,0,0,.56.29h1.12a.46.46,0,0,0,.5-.49v-.34A.47.47,0,0,0,168.72,70.34Z"></path><path class="cls-1" d="M177.2,68.58h-.39a.48.48,0,0,0-.5.49v1.25h-3.17V67.51h2.67a.48.48,0,0,0,.5-.49v-.37a.48.48,0,0,0-.5-.5h-2.67V63.29h3.15v1.24a.48.48,0,0,0,.49.5h.39a.48.48,0,0,0,.5-.5V62.48a.52.52,0,0,0-.55-.55h-6a.48.48,0,0,0-.5.49v.35a.48.48,0,0,0,.5.49h.51v7.08h-.53a.48.48,0,0,0-.49.5v.34a.47.47,0,0,0,.49.49h6.05a.51.51,0,0,0,.54-.54V69.07A.48.48,0,0,0,177.2,68.58Z"></path><path class="cls-1" d="M188.51,61.93H186a.47.47,0,0,0-.49.49v.35a.47.47,0,0,0,.49.49h.54v5.61l-4.44-6.64a.64.64,0,0,0-.56-.3h-1.38a.47.47,0,0,0-.49.49v.35a.47.47,0,0,0,.49.49h.52v7.08h-.53a.46.46,0,0,0-.49.5v.34a.46.46,0,0,0,.49.49h2.56a.46.46,0,0,0,.5-.49v-.34a.47.47,0,0,0-.5-.5h-.55V64.78l4.46,6.6a.62.62,0,0,0,.56.29h.3a.51.51,0,0,0,.55-.54V63.26h.47a.47.47,0,0,0,.5-.49v-.35A.47.47,0,0,0,188.51,61.93Z"></path><path class="cls-1" d="M203.8,61.93h-2.51a.47.47,0,0,0-.5.49v.35a.47.47,0,0,0,.5.49h.51v2.86h-4.29V63.26H198a.47.47,0,0,0,.5-.49v-.35a.47.47,0,0,0-.5-.49h-2.49a.47.47,0,0,0-.5.49v.35a.47.47,0,0,0,.5.49H196v7.08h-.53a.47.47,0,0,0-.49.5v.34a.46.46,0,0,0,.49.49H198a.46.46,0,0,0,.5-.49v-.34a.47.47,0,0,0-.5-.5h-.47V67.5h4.29v2.84h-.52a.47.47,0,0,0-.5.5v.34a.46.46,0,0,0,.5.49h2.52a.46.46,0,0,0,.49-.49v-.34a.46.46,0,0,0-.49-.5h-.49V63.26h.49a.46.46,0,0,0,.49-.49v-.35A.46.46,0,0,0,203.8,61.93Z"></path><path class="cls-1" d="M210.52,61.8c-2.63,0-4.4,2-4.4,5s1.77,5,4.4,5,4.4-2,4.4-5S213.19,61.8,210.52,61.8Zm2.87,5c0,2.18-1.12,3.59-2.87,3.59s-2.88-1.44-2.88-3.59,1.16-3.59,2.88-3.59S213.39,64.62,213.39,66.8Z"></path><path class="cls-1" d="M225.05,61.93h-2.5a.47.47,0,0,0-.49.49v.35a.47.47,0,0,0,.49.49h.52V67.6c0,1.84-.68,2.77-2,2.77-.92,0-2-.48-2-2.77V63.26h.47a.47.47,0,0,0,.5-.49v-.35a.47.47,0,0,0-.5-.49H217a.47.47,0,0,0-.5.49v.35a.47.47,0,0,0,.5.49h.51V67.6c0,2.63,1.32,4.2,3.52,4.2s3.53-1.53,3.53-4.2V63.26h.47a.47.47,0,0,0,.5-.49v-.35A.47.47,0,0,0,225.05,61.93Z"></path><path class="cls-1" d="M231.33,66.17c-1.42-.27-2.29-.5-2.29-1.61,0-.88.67-1.36,1.89-1.36a1.67,1.67,0,0,1,1.69.83.9.9,0,0,0-.21.56.85.85,0,0,0,.85.87.89.89,0,0,0,.89-.87,2.35,2.35,0,0,0-.61-1.82,3.52,3.52,0,0,0-2.61-1c-2.14,0-3.41,1-3.41,2.78,0,2.22,1.79,2.57,3.23,2.85s2.19.48,2.19,1.49c0,1.22-1.13,1.47-2.09,1.47-1.14,0-1.82-.36-2-.75a.79.79,0,0,0,.18-.53.82.82,0,0,0-.84-.87.87.87,0,0,0-.89.89h0a2.24,2.24,0,0,0,.61,1.73,4,4,0,0,0,3,.93c2.27,0,3.62-1.08,3.62-2.89C234.47,66.78,232.73,66.44,231.33,66.17Z"></path><path class="cls-1" d="M242.9,68.58h-.39a.48.48,0,0,0-.5.49v1.25h-3.17V67.51h2.67A.48.48,0,0,0,242,67v-.37a.48.48,0,0,0-.5-.5h-2.67V63.29H242v1.24a.48.48,0,0,0,.49.5h.39a.48.48,0,0,0,.5-.5V62.48a.52.52,0,0,0-.55-.55h-6a.48.48,0,0,0-.5.49v.35a.48.48,0,0,0,.5.49h.51v7.08h-.52a.48.48,0,0,0-.5.5v.34a.48.48,0,0,0,.5.49h6a.51.51,0,0,0,.55-.54V69.07A.48.48,0,0,0,242.9,68.58Z"></path><path class="cls-2" d="M262.28,38.29a2.93,2.93,0,0,0-.85.15,7.16,7.16,0,0,0-2.43,1.4A31.41,31.41,0,0,1,254.71,43c-.74.46-1.47.88-2.19,1.27s-1.4.72-2,1a15.75,15.75,0,0,1-1.71.64,5.87,5.87,0,0,1-1.69.22,4.45,4.45,0,0,1-2-.57,30.15,30.15,0,0,0,5.27-2.72l.62-.41c.3-.2.64-.44,1-.73q3.48-2.67,3.48-4.87a2.61,2.61,0,0,0-1.15-2.23,4.4,4.4,0,0,0-2.63-.77,15.3,15.3,0,0,0-4.69.94A24.47,24.47,0,0,0,239,39.12c-.22.18-.43.37-.63.56l-.2.16A31.41,31.41,0,0,1,233.91,43c-.74.46-1.47.88-2.19,1.27s-1.4.72-2,1a15.75,15.75,0,0,1-1.71.64,5.87,5.87,0,0,1-1.69.22,4.45,4.45,0,0,1-2-.57,30.15,30.15,0,0,0,5.27-2.72l.62-.41c.3-.2.64-.44,1-.73q3.48-2.67,3.48-4.87a2.61,2.61,0,0,0-1.15-2.23,4.4,4.4,0,0,0-2.63-.77,15.24,15.24,0,0,0-4.69.94,24.47,24.47,0,0,0-7.92,4.35,10.12,10.12,0,0,0-3.73,5.41c-.22.13-.48.3-.79.51a17.45,17.45,0,0,1-2.33,1.35A5.5,5.5,0,0,1,209,47a9.84,9.84,0,0,1-1.61-.51l-3.24-1.16c-.63-.23-1.73-.59-3.27-1.09-.51-.15-1-.27-1.37-.36a7.19,7.19,0,0,0-1.53-.14,4.07,4.07,0,0,0-1.59.29l4.45-2.63,6.38-4,3.12-2Q215.45,32,215.54,31a3.42,3.42,0,0,0-.88-2.46,4.45,4.45,0,0,0-.79-.78,1.32,1.32,0,0,0-.71-.29l-1.24.05-2.25.12-2.86.2-3.21.22-3.25.21c-1.09.08-2.1.14-3,.19s-1.79.1-2.53.13-1.39.06-1.93.06a6.56,6.56,0,0,0-2.59.93,16.26,16.26,0,0,0-1.6,1,14.68,14.68,0,0,0-1.45,1.15A8.73,8.73,0,0,0,186,33.08a1.72,1.72,0,0,0-.28,1.65,1.35,1.35,0,0,0,1.44.92,4.26,4.26,0,0,0,2.25-.92l1.11-.76a3.94,3.94,0,0,1,.93-.54,21.38,21.38,0,0,1,3.54-.19h8.78q.66,0,.66.12a47.79,47.79,0,0,1-4.21,3.12l-9.08,6.2-1,.62-2.23,1.39c-.52.33-1.06.7-1.62,1.1s-1.08.8-1.55,1.2a9.69,9.69,0,0,0-1.2,1.2,2.27,2.27,0,0,0-.55,1.24,2,2,0,0,0,.67,1.48,2.53,2.53,0,0,0,.67.56,2.23,2.23,0,0,0,1.13.22,6,6,0,0,0,1.76-.32c.68-.22,1.34-.45,2-.7s1.28-.48,1.92-.69a6.13,6.13,0,0,1,1.95-.32,19.61,19.61,0,0,1,4.44,1.14l5.35,1.74a12.66,12.66,0,0,0,3.24.72,10.46,10.46,0,0,0,6.8-2.7l1.55-1.33a7.93,7.93,0,0,0,.68-.72,6.13,6.13,0,0,0,1.49,1.41,8.84,8.84,0,0,0,5.18,1.54,20.92,20.92,0,0,0,8-1.7A29,29,0,0,0,233.39,48c.65-.37,1.26-.75,1.84-1.12a5.05,5.05,0,0,0,2.22,3,8.84,8.84,0,0,0,5.18,1.54,20.92,20.92,0,0,0,8-1.7A29,29,0,0,0,254.19,48c1.11-.64,2.12-1.28,3-1.92s1.72-1.27,2.41-1.86,1.29-1.15,1.82-1.7a6.21,6.21,0,0,0,1.23-1.77,4,4,0,0,0,.42-1.57C263.11,38.6,262.83,38.29,262.28,38.29Zm-39,4.38-.95.48a4.76,4.76,0,0,1-.12-1.23,3.1,3.1,0,0,1,.92-1.88,5.66,5.66,0,0,1,.92-.91,6.77,6.77,0,0,1,1.1-.73,6.93,6.93,0,0,1,1.14-.48,3.69,3.69,0,0,1,1-.17,1.16,1.16,0,0,1,.88.48,1.57,1.57,0,0,1,.28.44,1.06,1.06,0,0,1,.1.42c0,.12-.16.34-.48.65a33.46,33.46,0,0,1-4,2.48Zm20.8,0-1,.48a4.76,4.76,0,0,1-.12-1.23A3.1,3.1,0,0,1,244,40a5.66,5.66,0,0,1,.92-.91,6.77,6.77,0,0,1,1.1-.73,7.31,7.31,0,0,1,1.14-.48,3.69,3.69,0,0,1,1-.17,1.16,1.16,0,0,1,.88.48,1.57,1.57,0,0,1,.28.44,1.06,1.06,0,0,1,.1.42c0,.12-.16.34-.48.65a33.46,33.46,0,0,1-4,2.48Z"></path><path class="cls-2" d="M183.25,38.29a3,3,0,0,0-.85.15,7,7,0,0,0-2.42,1.4,32.18,32.18,0,0,1-4.3,3.16c-.74.46-1.47.88-2.19,1.27s-1.4.72-2,1a16.48,16.48,0,0,1-1.7.64,6,6,0,0,1-1.7.22,4.45,4.45,0,0,1-2-.57,29.78,29.78,0,0,0,5.27-2.72l.62-.41c.3-.2.64-.44,1-.73q3.48-2.67,3.48-4.87a2.62,2.62,0,0,0-1.14-2.23,4.45,4.45,0,0,0-2.64-.77,15.3,15.3,0,0,0-4.69.94A24.47,24.47,0,0,0,160,39.12c-.22.18-.43.37-.63.56l-.19.16a32.18,32.18,0,0,1-4.3,3.16c-.74.46-1.47.88-2.19,1.27s-1.4.72-2,1a16.48,16.48,0,0,1-1.7.64,6,6,0,0,1-1.7.22,4.45,4.45,0,0,1-2-.57,30.15,30.15,0,0,0,5.27-2.72l.62-.41c.3-.2.64-.44,1-.73q3.48-2.67,3.48-4.87a2.62,2.62,0,0,0-1.14-2.23,4.45,4.45,0,0,0-2.64-.77,15.3,15.3,0,0,0-4.69.94,24.47,24.47,0,0,0-7.92,4.35,10.12,10.12,0,0,0-3.73,5.41c-.22.13-.48.3-.79.51a18,18,0,0,1-2.32,1.35A5.58,5.58,0,0,1,130,47a10.17,10.17,0,0,1-1.61-.51l-3.24-1.16c-.63-.23-1.72-.59-3.27-1.09-.51-.15-1-.27-1.37-.36a7.08,7.08,0,0,0-1.52-.14,4.08,4.08,0,0,0-1.6.29l4.46-2.63,6.37-4,3.12-2Q136.43,32,136.51,31a3.42,3.42,0,0,0-.88-2.46,4.14,4.14,0,0,0-.79-.78,1.32,1.32,0,0,0-.71-.29l-1.24.05-2.25.12-2.86.2-3.2.22-3.26.21c-1.09.08-2.1.14-3,.19s-1.78.1-2.53.13-1.39.06-1.93.06a6.58,6.58,0,0,0-2.58.93,15.17,15.17,0,0,0-1.6,1,13.75,13.75,0,0,0-1.46,1.15A9.26,9.26,0,0,0,107,33.08a1.75,1.75,0,0,0-.28,1.65,1.35,1.35,0,0,0,1.44.92,4.26,4.26,0,0,0,2.25-.92l1.11-.76a3.79,3.79,0,0,1,.94-.54,21.09,21.09,0,0,1,3.53-.19h8.78q.66,0,.66.12a47.79,47.79,0,0,1-4.21,3.12l-9.08,6.2-1,.62-2.23,1.39c-.52.33-1.06.7-1.62,1.1s-1.08.8-1.55,1.2a11.3,11.3,0,0,0-1.2,1.2,2.34,2.34,0,0,0-.55,1.24,2,2,0,0,0,.67,1.48,2.53,2.53,0,0,0,.67.56,2.23,2.23,0,0,0,1.13.22,6,6,0,0,0,1.76-.32c.68-.22,1.34-.45,2-.7s1.29-.48,1.92-.69a6.22,6.22,0,0,1,1.95-.32,19.48,19.48,0,0,1,4.44,1.14l5.36,1.74a12.49,12.49,0,0,0,3.24.72,10.44,10.44,0,0,0,6.79-2.7l1.56-1.33a9.6,9.6,0,0,0,.67-.72,6,6,0,0,0,1.5,1.41,8.8,8.8,0,0,0,5.18,1.54,21,21,0,0,0,8-1.7A29.56,29.56,0,0,0,154.36,48c.65-.37,1.26-.75,1.85-1.12a5,5,0,0,0,2.22,3,8.8,8.8,0,0,0,5.18,1.54,21,21,0,0,0,8-1.7A29.56,29.56,0,0,0,175.16,48c1.11-.64,2.12-1.28,3-1.92s1.72-1.27,2.41-1.86,1.3-1.15,1.83-1.7a6.38,6.38,0,0,0,1.22-1.77,4,4,0,0,0,.42-1.57C184.08,38.6,183.81,38.29,183.25,38.29ZM144.3,42.67l-1,.48a4.76,4.76,0,0,1-.12-1.23,3.16,3.16,0,0,1,.92-1.88,5.36,5.36,0,0,1,.93-.91,6,6,0,0,1,1.1-.73,7.21,7.21,0,0,1,1.13-.48,3.74,3.74,0,0,1,1-.17,1.2,1.2,0,0,1,.89.48,1.79,1.79,0,0,1,.27.44,1.09,1.09,0,0,1,.11.42c0,.12-.17.34-.49.65a33.84,33.84,0,0,1-4,2.48Zm20.8,0-1,.48a4.76,4.76,0,0,1-.12-1.23,3.16,3.16,0,0,1,.92-1.88,5.74,5.74,0,0,1,.93-.91,6.36,6.36,0,0,1,1.1-.73,7.21,7.21,0,0,1,1.13-.48,3.74,3.74,0,0,1,1-.17,1.2,1.2,0,0,1,.89.48,1.79,1.79,0,0,1,.27.44,1.09,1.09,0,0,1,.11.42c0,.12-.17.34-.49.65a33.84,33.84,0,0,1-4,2.48Z"></path><path class="cls-1" d="M82,63.21a69.23,69.23,0,0,1-7.58.33c-.82,0-1.62,0-2.4-.07-13.6-.67-22.15-5.42-24.57-6.95A22.86,22.86,0,0,0,52,52.19c.59.41,1.34,1.26,2.29,4.72a.52.52,0,0,0,.31.35.49.49,0,0,0,.21,0,.57.57,0,0,0,.25-.06,10.06,10.06,0,0,1,3.64-1.08.51.51,0,0,0,.41-.23.49.49,0,0,0,.08-.45c0-.18-1.24-4.34-4.21-5.83-.32-.16-.71-.41-.72-.73s.65-1.09,1.29-1.54a3.25,3.25,0,0,0,3.94,1.43c1.67,1.06,12.08,7.46,20.53,7.46.43,0,.85,0,1.27-.06a1.73,1.73,0,0,0,.32,0A13.16,13.16,0,0,0,81.27,58a8.36,8.36,0,0,0,0,1,.17.17,0,0,0,0,.07.34.34,0,0,0,0,.1,9.65,9.65,0,0,0,.82,4"></path><path class="cls-3" d="M88,16.61c-.06,2.12-2.09,4.24-3,5.08-1.26-1.62-4-4.35-9.61-1.22h0c-1.07.47-4.1,1.54-5.47.9a1,1,0,0,1-.59-.66A1.74,1.74,0,0,1,69.58,19c1.29-1.52,5.69-1.4,7.56-1.2l.24,0a.53.53,0,0,0,.58-.48.54.54,0,0,0-.47-.59l-.22,0c-.82-.11-2.53-.51-3.09-1.39a1.3,1.3,0,0,1-.07-1.21,1.52,1.52,0,0,1,1-1c2-.73,6.12,1.24,7.61,2.1l.06,0a.53.53,0,0,0,.73-.2.54.54,0,0,0-.2-.73l0,0c-.59-.35-.92-.78-.9-1.16a.78.78,0,0,1,.54-.63c.77-.31,2.2-.08,3.91,1.47A3.31,3.31,0,0,1,88,16.61"></path><path class="cls-3" d="M82.46,54c-.16.36-.34.71-.53,1.06-7.7,1.15-18.68-5.17-21.45-6.87A3.19,3.19,0,0,0,61.32,47C63.73,48.53,73.1,54.06,81,54.06c.5,0,1,0,1.48-.07"></path><path class="cls-3" d="M57.9,55.16a10.76,10.76,0,0,0-2.8.85C54,52.2,53.05,51.6,52.29,51.12L52.17,51l-.08,0a1.3,1.3,0,0,1-.52-.72c-.44-1.21,2-3,3-3.56h0A3.18,3.18,0,0,0,53.14,49a2,2,0,0,0,1.31,1.67c1.92,1,3,3.39,3.45,4.54"></path><path class="cls-3" d="M60.5,45.77a2.18,2.18,0,0,1-2.18,2.16,2.14,2.14,0,0,1-1.47-.57,6.62,6.62,0,0,0,3.65-1.59"></path><path class="cls-3" d="M60.12,44.54c-.94,1.41-3,1.74-3.9,1.81a2.33,2.33,0,0,1-.08-.59,2.19,2.19,0,0,1,2.18-2.19,2.16,2.16,0,0,1,1.8,1"></path><path class="cls-3" d="M55.15,45h0a3.08,3.08,0,0,0-.08.53c-.53.09-1.46.23-2.43.36a25.6,25.6,0,0,1-2.66.25c-.69,0-1.11-.09-1.27-.3s-.26-.78.19-2.24a.78.78,0,0,1,.48-.52c.94-.41,2.81.07,4.34.62A10.58,10.58,0,0,0,55.15,45"></path><path class="cls-3" d="M56.44,43.1a3.41,3.41,0,0,0-.45.39c-.27-.13-.89-.41-1.68-.71-.41-.44-.79-.89-1.09-1.26h.11a5.65,5.65,0,0,0,1.53-.27h0a7.33,7.33,0,0,0,1.57,1.86"></path><path class="cls-4" d="M86.09,29.75a1.49,1.49,0,0,1,0,1.68c-.55.82-1.25,1.36-3.57.41A.54.54,0,0,0,82,32a.52.52,0,0,0-.11.58c0,.13,4.53,10.93,1.06,20.19-8.16,1.17-19.6-5.83-21.36-7v-.14a3.22,3.22,0,0,0-.33-1.42l0-.07a3.25,3.25,0,0,0-2.89-1.77,3.18,3.18,0,0,0-.77.1h0a6.19,6.19,0,0,1-1.66-1.77,7.58,7.58,0,0,0,1.81-1.3,10,10,0,0,0,1.52-1.94,55.29,55.29,0,0,1,9.27-10.6,44.59,44.59,0,0,1,7.41-5.56h0c5.29-3,7.49-.14,8.56,1.32a.35.35,0,0,1,0,.08h0l.13.18a4.64,4.64,0,0,0,3.15,1.41,4.88,4.88,0,0,1-2.54,1,.54.54,0,0,0-.4.22.49.49,0,0,0-.09.44,10.55,10.55,0,0,0,1.31,3.83"></path><path class="cls-3" d="M39.7,14.13c-.85.34-3.87,1.18-10.53-.23A52.16,52.16,0,0,0,16.23,13L26.71,26.06a55.34,55.34,0,0,1,8.78-.68,51,51,0,0,1,6.66.42c6.41.85,9-.37,9.79-.88ZM47.6,24.3c-.42,0-.88,0-1.37,0a30,30,0,0,1-3.81-.27,61.75,61.75,0,0,0-8.15-.54c-2.47,0-4.89.11-6,.22a.37.37,0,0,1-.33-.12l-7.11-8.37a.34.34,0,0,1,0-.36.38.38,0,0,1,.35-.19,45,45,0,0,1,7.6.91,34.43,34.43,0,0,0,7,.82A16.81,16.81,0,0,0,39,16.15a.38.38,0,0,1,.33.09l8.48,7.47a.31.31,0,0,1,.1.36.38.38,0,0,1-.32.23"></path><path class="cls-4" d="M46.7,23.66a26.47,26.47,0,0,1-4.17-.27,63.53,63.53,0,0,0-8.26-.54c-2.1,0-4.51.09-5.87.21l-6.48-7.63a43.17,43.17,0,0,1,6.67.85A27.75,27.75,0,0,0,39,16.85Z"></path><path class="cls-5" d="M33.62,57.9c-4.51-5.86-10.77.43-10.77.43s-1.66-2.87,2-5.46a6.51,6.51,0,0,1,6.87-.6l.09,0a10.78,10.78,0,0,1,1.56,1.12c0,.12,0,.25,0,.38a12.88,12.88,0,0,0,.3,4.08"></path><path class="cls-4" d="M36.15,46.93a13.12,13.12,0,0,0-2.79,6.51,11.63,11.63,0,0,0-1.56-1.13,9.93,9.93,0,0,0-12.94,1.27S20,47,26.75,45.32c.29-.07.58-.14.86-.19h0a16,16,0,0,1,3.83.14A13.68,13.68,0,0,1,36.15,46.93Z"></path><path class="cls-1" d="M64,29.27l-.68.73L41.13,10.77a6.6,6.6,0,0,0,1.17-.55Z"></path><path class="cls-4" d="M64.92,58.34a.72.72,0,0,1,.34.06,1.4,1.4,0,0,1,.3.14l.24.18.57.47.56.47a2.62,2.62,0,0,0,.29.23,1.21,1.21,0,0,0,.52,0,4.27,4.27,0,0,0,.57-.09,2,2,0,0,1,.35-.06.53.53,0,0,1,.17,0,.23.23,0,0,1,.12.1.17.17,0,0,1,0,.18.68.68,0,0,1-.13.18,1.29,1.29,0,0,1-.21.19,2.2,2.2,0,0,1-.45.26l-.41.15a2.24,2.24,0,0,1-1.57,0,2.83,2.83,0,0,1-.59-.39l-.94-.76a4.41,4.41,0,0,0-.8-.56,1.5,1.5,0,0,0-.42-.09H63l-.45,0a1,1,0,0,1-.38-.07.5.5,0,0,1-.21-.12.56.56,0,0,1-.09-.17.44.44,0,0,1,0-.35.51.51,0,0,1,.21-.2,1.7,1.7,0,0,1,.33-.15c.13,0,.26-.09.4-.12l.41-.1.55-.11.24-.05,2.29-.55a10.9,10.9,0,0,0,1.08-.31s0,0-.12-.07l-.84-.32-.54-.2-.38-.14a4.31,4.31,0,0,0-.72-.24,1.24,1.24,0,0,0-.23,0l-.28.07a.92.92,0,0,1-.52,0,.29.29,0,0,1-.22-.29.36.36,0,0,1,.18-.31,1.46,1.46,0,0,1,.35-.18,2.11,2.11,0,0,1,.38-.12,3,3,0,0,1,.39-.08,1.52,1.52,0,0,1,.59,0l.39.14.52.16.62.19.67.21.66.2.59.18.46.14.25.09a.24.24,0,0,1,.12.11.9.9,0,0,1,.1.22.76.76,0,0,1,0,.56,3.31,3.31,0,0,1-1.38.49l-.78.17L66,58.15Z"></path><path class="cls-4" d="M72.38,60.09a.75.75,0,0,1,.3,0,1.25,1.25,0,0,1,.27.08l.24.11.57.3.56.32a1.26,1.26,0,0,0,.28.14.94.94,0,0,0,.46,0,2.17,2.17,0,0,0,.47-.17,1.08,1.08,0,0,1,.29-.1H76a.19.19,0,0,1,.12.07.16.16,0,0,1,0,.15.48.48,0,0,1-.08.18.9.9,0,0,1-.15.19,1.83,1.83,0,0,1-.34.31l-.33.19a2,2,0,0,1-1.34.28,2.17,2.17,0,0,1-.57-.24l-.93-.49a3.81,3.81,0,0,0-.78-.35,1.14,1.14,0,0,0-.37,0l-.37.07-.39.06a1,1,0,0,1-.34,0,.47.47,0,0,1-.2-.07.64.64,0,0,1-.1-.13.39.39,0,0,1-.08-.29.43.43,0,0,1,.15-.21,1.8,1.8,0,0,1,.25-.18,2.55,2.55,0,0,1,.33-.17,2.41,2.41,0,0,1,.33-.15l.46-.19.19-.08,1.87-.85a8,8,0,0,0,.88-.44s0,0-.12,0l-.77-.13-.5-.09-.34-.06a4.38,4.38,0,0,0-.66-.08.64.64,0,0,0-.19.07l-.23.1a.74.74,0,0,1-.44.1.25.25,0,0,1-.24-.21.35.35,0,0,1,.11-.3,1.09,1.09,0,0,1,.27-.21,2.14,2.14,0,0,1,.3-.17l.33-.13a1.49,1.49,0,0,1,.5-.09l.36.06.47,0,.56.07.61.06.6.07.53,0,.42,0,.23,0a.3.3,0,0,1,.12.08.83.83,0,0,1,.12.17.65.65,0,0,1,.08.48c0,.12-.4.33-1.1.65l-.64.27-1.3.52Z"></path><path class="cls-1" d="M80.91,23A1.13,1.13,0,1,0,82,24.11,1.13,1.13,0,0,0,80.91,23"></path><path class="cls-5" d="M81,49.81a.83.83,0,0,1-.44-.12c-.7-.41-1.11-2.09-1.33-3.46-.9,1.2-2.37,2.77-3.62,2.28-1.8-.7-1.25-3.77-1.18-4.11A.51.51,0,0,1,75,44a.53.53,0,0,1,.41.61c-.17.83-.25,2.64.55,2.95s2.26-1.56,3.14-3a.5.5,0,0,1,.55-.23.51.51,0,0,1,.4.44,11.48,11.48,0,0,0,.94,4,4.42,4.42,0,0,0,1.11-2.36.53.53,0,0,1,.61-.41.51.51,0,0,1,.4.6c-.05.27-.54,2.64-1.81,3.16a.78.78,0,0,1-.33.07"></path><path class="cls-5" d="M70.77,48.66a1.74,1.74,0,0,1-.84-.21c-1.46-.78-1.24-3.3-.86-5.1a3.66,3.66,0,0,1-3.51.86c-2.53-1-1-6.11-.76-6.7a.52.52,0,1,1,1,.32c-.5,1.56-1.13,4.93.15,5.41,1.75.66,3.71-1.89,3.73-1.92a.52.52,0,0,1,.9.47c-.55,1.62-1.29,5.14-.15,5.75s3.16-1.93,4-3.24a.51.51,0,1,1,.87.54c-.27.44-2.43,3.82-4.49,3.82"></path><path class="cls-5" d="M78.88,42.43a.8.8,0,0,1-.44-.13c-.7-.41-1.1-2.08-1.32-3.45-.9,1.2-2.37,2.77-3.62,2.28-1.81-.71-1.26-3.77-1.19-4.12a.51.51,0,0,1,1,.2c-.16.83-.24,2.65.55,3s2.27-1.57,3.14-3a.52.52,0,0,1,.55-.24.51.51,0,0,1,.4.45,11.34,11.34,0,0,0,1,4A4.39,4.39,0,0,0,80,39a.5.5,0,0,1,.6-.4.51.51,0,0,1,.41.6c0,.27-.55,2.63-1.82,3.16a.78.78,0,0,1-.33.07"></path><path class="cls-5" d="M74,71.41A38.33,38.33,0,0,1,77,67.88a.51.51,0,0,0-.35-.87H75.8a.47.47,0,0,0-.38.16L73.51,69.3a.52.52,0,0,1-.43.18,31,31,0,0,0-8.71.84.56.56,0,0,1-.57-.2.53.53,0,0,1,0-.6,3.37,3.37,0,0,0-.09-2.76,62,62,0,0,1-8.73.59c.72.78,2.3,1.88,5.46,1.88a.53.53,0,0,1,.5.34.55.55,0,0,1-.13.59,1.26,1.26,0,0,0,.22,2l.73.44a1.27,1.27,0,0,0,1,.12c1.77-.58,5.31-1.76,8.91-1.19h0A1.51,1.51,0,0,0,74,71.41Z"></path><path class="cls-4" d="M32.41,74.79c3.43-1.27,6.22-4.88,6.33-5a.55.55,0,0,0-.06-.73,2.71,2.71,0,0,1-1-2.06,2.2,2.2,0,0,1,.09-.64l0-.14c.08-.26.2-1.36.3-1.53.21-.37-2.42-4.3-2.54-4.55l-.4-.81A11.73,11.73,0,0,1,37,47.48l.51.36a15.81,15.81,0,0,1,1.68,1.45.12.12,0,0,1,0,.05A19.61,19.61,0,0,0,43,52.22l0,0h0c.23.13.47.26.73.38A8.7,8.7,0,0,0,48,53.74h0a5.48,5.48,0,0,0,1.19-.25,11.23,11.23,0,0,1-3,2.4.54.54,0,0,0-.31.43.55.55,0,0,0,.21.49c.11.07,8.43,6.13,23.37,7.44a0,0,0,0,1,0,0A38.24,38.24,0,0,1,64,65.52h0l-.1,0a72.89,72.89,0,0,1-17.34.23,4.08,4.08,0,0,1-.48,1h0l-.08.12a1,1,0,0,0-.08.11h0a5.45,5.45,0,0,1-3.44,2c-1,1.22-4.16,5.81-9.54,7.26a7.41,7.41,0,0,1-.12,3.15,1.13,1.13,0,0,1-1.36.63L31.15,80a.73.73,0,0,1-.45-.77,14.34,14.34,0,0,0-.57-5.45c0-.14.48-.59.59-.52a4.91,4.91,0,0,1,1.19,1.08Z"></path><path class="cls-5" d="M52.25,42.05l0,0a6.66,6.66,0,0,0-2.91-.17h0c-.17-.18-5.68-5.93-13-6.9h0c-4.52-1.92-10.41-.58-10.8-.49h0a8.67,8.67,0,0,1,1.69-1.65h0A13.92,13.92,0,0,1,38,30.34C46.58,31.57,51.2,37.71,52.23,42A.29.29,0,0,1,52.25,42.05Z"></path><path class="cls-5" d="M18.24,46.87,18,47Z"></path><path class="cls-5" d="M48,52.44A9,9,0,0,1,43,51l.73.38A8.7,8.7,0,0,0,48,52.44Z"></path><path class="cls-5" d="M50.47,50.42a1.77,1.77,0,0,1-.08-.56,2.46,2.46,0,0,1,.28-1.1A2.44,2.44,0,0,0,50.47,50.42Z"></path><path class="cls-5" d="M50.67,48.76a2.46,2.46,0,0,0-.28,1.1,1.77,1.77,0,0,0,.08.56.37.37,0,0,1,0,.09s0,0,0,0a1.71,1.71,0,0,0,.37.7l0,0h0a5,5,0,0,1-2.82,1.17h0a8.7,8.7,0,0,1-4.29-1.09L43,51l0,0A19.88,19.88,0,0,1,39.26,48l0,0a14,14,0,0,0-7.76-4c-4.63-.76-9,.84-11.55,2l-.07,0-.15.08-.3.14-.2.11-.13.06-.05,0-.25.13-.33.19,0,0-.14.08L18,47l-.06,0,0,0h0c.24-.3,4.94-5.84,14.31-6.3l1.17,0a24.28,24.28,0,0,1,11.07,2.68l.6.31.66.37.21.13c.32.19.61.38.86.55l.42.29.3.22,0,0c0,.07,0,.14,0,.21a.45.45,0,0,0,0,.16c0,.06,0,.11,0,.17l.06.15a1.27,1.27,0,0,0,.12.23l.08.11.12.14a2.34,2.34,0,0,0,.31.24.3.3,0,0,0,.11.06.19.19,0,0,0,.1,0h0l.16.07.16,0,.17,0a.57.57,0,0,0,.18,0,1.46,1.46,0,0,0,.22,0l.46,0h.14c.59,0,1.41-.09,2.23-.19h0a5.75,5.75,0,0,0-1.46,1.74Z"></path><path class="cls-4" d="M49.3,41.86h0c-1.31.29-1.46,1.36-1.75,2.57,0,.12,0,.24-.07.36a.49.49,0,0,1,0,.12,3.53,3.53,0,0,0,0,.46l0,0-.3-.22-.42-.29c-.25-.17-.54-.36-.86-.55l-.21-.13L45,43.79l-.6-.31A24.28,24.28,0,0,0,33.29,40.8l-1.17,0c-9.37.46-14.07,6-14.31,6.3A12.29,12.29,0,0,1,24,37.52,19.59,19.59,0,0,1,36.28,35h0c7.31,1,12.82,6.72,13,6.9Z"></path><polygon class="cls-4" points="17.81 47.13 17.81 47.14 17.81 47.13 17.81 47.13"></polygon><path class="cls-1" d="M57.73,26.27l-.08-.06L40.35,11h-.09l-.06,0-.13,0-.11,0a15.45,15.45,0,0,1-3.91.41H34.37c-.75,0-1.57-.09-2.48-.18l-1.34-.15h-.1l-.64-.09-.66-.1c-.9-.13-1.86-.3-2.88-.5A32,32,0,0,0,22.83,10h-.5c-.43,0-1.11-.05-1.95-.06-1.07,0-2.4,0-3.81.16h-.05c-.71.07-1.44.16-2.17.29h0A12.13,12.13,0,0,0,8.66,12.6s2.76-.06,3.37,1.25a1.15,1.15,0,0,1,.12.53c0,.85-1,1-2.14,1.37l-.43.13A3.39,3.39,0,0,0,6.89,19a14.75,14.75,0,0,1,3.3-.95A8.72,8.72,0,0,1,13,18a2.94,2.94,0,0,1,1.79,1c1.25,1.49-1.7,1.06-3.71,2.32a3.33,3.33,0,0,0-1.59,2.34,19.13,19.13,0,0,1,2.13-.19h.07a13.67,13.67,0,0,1,1.8,0c1.77.16,3.42.74,3.2,2.4s-3.12,1.53-3.78,1.45h-.13l0,0v0l.08.1v0l0,0,.09.1a7.14,7.14,0,0,0,.89.81l.23.16.13.08.23.15.13.08a12.08,12.08,0,0,0,5.39,1.54h.21a20.31,20.31,0,0,0,3.26-.08h0c.65-.07,1.25-.14,1.81-.22h.1l.49-.07.65-.1.27-.05.46-.08.22,0,1.8-.38h0l.49-.11h0l.25-.06a22.59,22.59,0,0,1,4.06-.72h.13l.41,0a51.93,51.93,0,0,1,5.93.52h.12c6,.65,12.55,1.63,17.7-2.11Zm-4.94-1c-.09.1-2.3,2.45-10.71,1.33a54.45,54.45,0,0,0-15.43.29h-.08a.39.39,0,0,1-.29-.13l-11-13.74a.32.32,0,0,1,0-.34.39.39,0,0,1,.3-.2,53.09,53.09,0,0,1,13.83.88c7.61,1.61,10.21.2,10.24.18a.38.38,0,0,1,.44,0L52.76,24.83A.32.32,0,0,1,52.79,25.29Z"></path><path class="cls-1" d="M38.86,29.45Z"></path><path class="cls-5" d="M94.85,46.45l.11-.19v0a1.76,1.76,0,0,0,.15-.44A2.76,2.76,0,0,0,94.68,44a6.14,6.14,0,0,0-.89-1.16,9.94,9.94,0,0,1-4.18,3.25,1.14,1.14,0,0,1-1.22-.22l-.06-.07h0c2.41-1.07,5-2.93,5.07-4.11.08-1-1-2.12-1.5-2.54-1.63,1.71-5.2,3.12-6.68,3.69a1.91,1.91,0,0,1,.09.53,22.68,22.68,0,0,1-2.54,12.42,12.13,12.13,0,0,0-.46,2.81c5.2.14,7.35-1,8.23-2.1A2.79,2.79,0,0,0,91.18,55a25.62,25.62,0,0,1-4.29.79h-.06a.54.54,0,0,1-.06-1.07c6-.67,7.73-2.22,8.18-3.4a3.63,3.63,0,0,0-.56-3,8.81,8.81,0,0,1-1.73,1h0a.4.4,0,0,1-.15,0,.58.58,0,0,1-.18,0l0,0a.41.41,0,0,1-.11-.07l0,0-.47-.43A8.6,8.6,0,0,0,94.85,46.45Z"></path></svg> 